<svg width="348" height="348" viewBox="0 0 348 348" fill="none" xmlns="http://www.w3.org/2000/svg">
<path d="M173.51 13.35C151.88 13.35 130.91 17.58 111.17 25.93C92.1 34 74.97 45.55 60.26 60.26C45.55 74.97 34 92.1 25.93 111.17C17.58 130.91 13.35 151.88 13.35 173.51C13.35 195.14 17.58 216.11 25.93 235.85C34 254.92 45.55 272.05 60.26 286.76C74.97 301.47 92.1 313.02 111.17 321.09C130.91 329.44 151.88 333.67 173.51 333.67C195.14 333.67 216.11 329.44 235.85 321.09C254.92 313.02 272.05 301.47 286.76 286.76C301.47 272.05 313.02 254.92 321.09 235.85C329.44 216.11 333.67 195.14 333.67 173.51C333.67 151.88 329.44 130.91 321.09 111.17C313.02 92.1 301.47 74.97 286.76 60.26C272.05 45.55 254.92 34 235.85 25.93C216.11 17.58 195.14 13.35 173.51 13.35ZM173.51 0C269.34 0 347.02 77.68 347.02 173.51C347.02 269.34 269.34 347.02 173.51 347.02C77.68 347.02 0 269.34 0 173.51C0 77.68 77.68 0 173.51 0Z" fill="#CADCF9"/>
<path d="M250.05 135.739C250.05 138.009 249.24 140.259 247.68 142.019L180.59 217.379C178.78 219.419 176.21 220.589 173.53 220.589C170.85 220.589 168.28 219.419 166.47 217.379L99.35 141.979C96.7 139.009 96.22 134.649 98.13 131.129C99.51 128.579 102.01 126.848 104.8 126.498C107.61 126.148 110.44 127.229 112.37 129.389L173.54 198.099L234.66 129.439C236.58 127.279 239.41 126.199 242.22 126.549C245.01 126.889 247.51 128.619 248.89 131.169C249.68 132.599 250.05 134.179 250.05 135.739Z" fill="#CADCF9"/>
</svg>
