<?xml version="1.0" encoding="UTF-8"?>
<svg id="Calque_1" data-name="Calque 1" xmlns="http://www.w3.org/2000/svg" viewBox="0 0 1920 1080">
  <defs>
    <style>
      .cls-1 {
        fill: #cadcf9;
        stroke-width: 0px;
      }
    </style>
  </defs>
  <g id="Groupe_120806" data-name="Groupe 120806">
    <g id="Groupe_120802" data-name="Groupe 120802">
      <path id="Tracé_43480" data-name="Tracé 43480" class="cls-1" d="m1080.85,510.38l-96.21-78.72c-1.87-1.53-4.63-1.25-6.16.62-.64.78-.99,1.76-.99,2.77v40.15c-22.52,4.88-139.94,36.75-139.94,169.77,0,2,1.36,3.74,3.29,4.24.35.09.72.14,1.09.14,1.6,0,3.07-.87,3.84-2.28.5-.92,50.51-90.71,131.73-93.85v39.28c0,2.42,1.96,4.38,4.38,4.38,1.01,0,1.99-.35,2.77-.99l96.21-78.72c1.87-1.53,2.15-4.29.62-6.16-.18-.23-.39-.43-.62-.62Z"/>
    </g>
  </g>
</svg>