<svg width="286" height="246" viewBox="0 0 286 246" fill="none" xmlns="http://www.w3.org/2000/svg">
<path d="M274.09 245.67H11.7198C5.25979 245.67 0.0197656 240.43 0.00976562 233.96V78.7603C0.00976562 76.4103 1.90977 74.5103 4.25977 74.5103H281.55C283.9 74.5103 285.8 76.4103 285.8 78.7603V233.97C285.8 240.43 280.55 245.67 274.09 245.68V245.67ZM8.50977 83.0202V233.97C8.50977 235.74 9.94979 237.17 11.7198 237.17H274.1C275.87 237.17 277.3 235.74 277.31 233.97V83.0202H8.51978H8.50977Z" fill="#CADCF9"/>
<path d="M281.54 83.0099H4.25C1.9 83.0099 0 81.1099 0 78.7599V37.8999C0 31.4399 5.24002 26.1899 11.71 26.1899H44.96C47.31 26.1899 49.21 28.0999 49.21 30.4499V37.6399C49.21 43.5799 54.02 48.3899 59.96 48.3899C65.9 48.3899 70.71 43.5799 70.71 37.6399V30.4499C70.71 28.0999 72.62 26.1899 74.97 26.1899H210.83C213.18 26.1899 215.09 28.0999 215.09 30.4499V37.6399C215.01 43.5799 219.75 48.4599 225.69 48.5399C231.63 48.6199 236.51 43.8799 236.59 37.9399C236.59 37.8399 236.59 37.7399 236.59 37.6399V30.4499C236.59 28.0999 238.49 26.1899 240.84 26.1899H274.09C280.55 26.1899 285.79 31.4399 285.8 37.8999V78.7499C285.8 81.0999 283.9 82.9999 281.55 83.0099H281.54ZM8.5 74.4999H277.29V37.8999C277.29 36.1299 275.85 34.6999 274.08 34.6999H245.09V37.6399C245.05 48.2699 236.4 56.8599 225.76 56.8299C215.18 56.7899 206.61 48.2199 206.57 37.6399V34.6999H79.21V37.6399C79.08 48.2799 70.35 56.7899 59.71 56.6599C49.26 56.5299 40.82 48.0899 40.69 37.6399V34.6999H11.7C9.93001 34.6999 8.50005 36.1399 8.49005 37.8999V74.4999H8.5Z" fill="#CADCF9"/>
<path d="M59.97 56.8903C49.34 56.8903 40.72 48.2703 40.71 37.6303V19.3303C40.71 8.69029 49.33 0.0703125 59.97 0.0703125C70.61 0.0703125 79.23 8.69029 79.23 19.3303V37.6303C79.22 48.2603 70.61 56.8703 59.98 56.8903H59.97ZM59.97 8.58029C54.04 8.59029 49.23 13.4003 49.22 19.3303V37.6303C49.22 43.5703 54.03 48.3803 59.97 48.3803C65.91 48.3803 70.72 43.5703 70.72 37.6303V19.3303C70.72 13.3903 65.91 8.58029 59.97 8.58029Z" fill="#CADCF9"/>
<path d="M225.83 56.8901C215.2 56.8801 206.59 48.2601 206.57 37.6301V19.3301C206.53 8.70013 215.12 0.0401391 225.76 0.000139132C236.39 -0.0398609 245.05 8.55014 245.09 19.1901V37.6301C245.08 48.2601 236.47 56.8801 225.83 56.8901ZM225.83 8.58013C219.89 8.58013 215.08 13.4001 215.08 19.3301V37.6301C215.08 43.5701 219.89 48.3801 225.83 48.3801C231.77 48.3801 236.58 43.5701 236.58 37.6301V19.3301C236.57 13.4001 231.76 8.59013 225.83 8.58013Z" fill="#CADCF9"/>
<path d="M56.87 130.85H28.79C26.44 130.85 24.54 128.95 24.54 126.6V101.92C24.54 99.5699 26.44 97.6699 28.79 97.6699H56.88C59.23 97.6699 61.13 99.5699 61.13 101.91V126.6C61.13 128.95 59.23 130.86 56.88 130.86L56.87 130.85ZM33.04 122.34H52.63V106.17H33.04V122.34Z" fill="#CADCF9"/>
<path d="M106.51 130.85H78.4199C76.0699 130.85 74.1699 128.94 74.1699 126.59V101.91C74.1699 99.5602 76.0699 97.6602 78.4199 97.6602H106.51C108.86 97.6602 110.77 99.5602 110.77 101.91V126.59C110.77 128.94 108.86 130.85 106.51 130.85ZM82.6799 122.34H102.26V106.17H82.6799V122.34Z" fill="#CADCF9"/>
<path d="M156.16 130.85H128.07C125.72 130.85 123.81 128.94 123.81 126.59V101.91C123.81 99.5602 125.72 97.6602 128.07 97.6602H156.16C158.51 97.6602 160.41 99.5602 160.41 101.91V126.59C160.41 128.94 158.51 130.84 156.16 130.85ZM132.33 122.34H151.91V106.17H132.33V122.34Z" fill="#CADCF9"/>
<path d="M205.78 130.85H177.7C175.35 130.85 173.45 128.95 173.45 126.6V101.92C173.45 99.5699 175.35 97.6699 177.7 97.6699H205.79C208.14 97.6699 210.04 99.5699 210.04 101.91V126.6C210.04 128.95 208.14 130.85 205.8 130.86H205.79L205.78 130.85ZM181.95 122.34H201.53V106.17H181.95V122.34Z" fill="#CADCF9"/>
<path d="M255.42 130.85H227.34C224.99 130.85 223.08 128.94 223.08 126.59V101.91C223.08 99.5602 224.99 97.6602 227.34 97.6602H255.42C257.77 97.6602 259.68 99.5602 259.68 101.91V126.59C259.68 128.94 257.77 130.85 255.42 130.85ZM231.6 122.34H251.18V106.17H231.6V122.34Z" fill="#CADCF9"/>
<path d="M56.87 176.55H28.79C26.44 176.55 24.54 174.65 24.54 172.31V147.62C24.54 145.27 26.44 143.37 28.79 143.37H56.88C59.23 143.37 61.13 145.27 61.13 147.61V172.3C61.13 174.64 59.23 176.55 56.89 176.55H56.88H56.87ZM33.04 168.05H52.63V151.88H33.04V168.05Z" fill="#CADCF9"/>
<path d="M106.51 176.55H78.4199C76.0699 176.55 74.1699 174.65 74.1699 172.3V147.62C74.1699 145.27 76.0699 143.37 78.4199 143.37H106.51C108.86 143.37 110.77 145.27 110.77 147.62V172.3C110.77 174.65 108.86 176.55 106.51 176.55ZM82.6799 168.05H102.26V151.88H82.6799V168.05Z" fill="#CADCF9"/>
<path d="M156.16 176.55H128.07C125.72 176.55 123.81 174.65 123.81 172.3V147.62C123.81 145.27 125.72 143.37 128.07 143.37H156.16C158.51 143.37 160.41 145.27 160.41 147.62V172.3C160.41 174.65 158.5 176.55 156.16 176.55ZM132.33 168.05H151.91V151.88H132.33V168.05Z" fill="#CADCF9"/>
<path d="M205.78 176.55H177.7C175.35 176.55 173.45 174.65 173.45 172.31V147.62C173.45 145.27 175.35 143.37 177.7 143.37H205.79C208.14 143.37 210.04 145.27 210.04 147.61V172.3C210.04 174.64 208.14 176.55 205.8 176.55H205.78ZM181.95 168.05H201.53V151.88H181.95V168.05Z" fill="#CADCF9"/>
<path d="M255.42 176.55H227.34C224.99 176.55 223.08 174.65 223.08 172.3V147.62C223.08 145.27 224.99 143.37 227.34 143.37H255.42C257.77 143.37 259.68 145.27 259.68 147.62V172.3C259.68 174.65 257.77 176.55 255.42 176.55ZM231.6 168.05H251.18V151.88H231.6V168.05Z" fill="#CADCF9"/>
</svg>
