<?xml version="1.0" encoding="UTF-8"?>
<svg id="Calque_1" data-name="Calque 1" xmlns="http://www.w3.org/2000/svg" viewBox="0 0 1920 1080">
  <defs>
    <style>
      .cls-1 {
        fill: #cadcf9;
        stroke-width: 0px;
      }
    </style>
  </defs>
  <g id="Groupe_120805" data-name="Groupe 120805">
    <g id="Groupe_120804" data-name="Groupe 120804">
      <g id="Groupe_120803" data-name="Groupe 120803">
        <path id="Tracé_43481" data-name="Tracé 43481" class="cls-1" d="m953.6,585.19l-41.64,41.64c-10.8,10.62-28.16,10.49-38.78-.31-10.5-10.67-10.5-27.8,0-38.47l41.64-41.64,8.64-8.64c10.7-10.71,28.05-10.72,38.76-.02,2.97,2.97,5.22,6.59,6.58,10.57,6.95,1.31,14.1-.9,19.1-5.9l5.93-5.93c-5.58-13.78-16.51-24.72-30.3-30.31-20.48-8.33-43.97-3.57-59.59,12.08l-50.28,50.28c-21.49,21.49-21.49,56.33,0,77.81,21.49,21.49,56.33,21.49,77.81,0l50.27-50.27c3.08-3.08,5.79-6.52,8.06-10.24-11.86,3.43-24.48,3.2-36.21-.65Z"/>
        <path id="Tracé_43482" data-name="Tracé 43482" class="cls-1" d="m1066.37,433.62c-21.5-21.45-56.31-21.45-77.81,0l-50.27,50.27c-3.08,3.08-5.79,6.52-8.06,10.23,11.86-3.43,24.48-3.21,36.22.64l41.64-41.64c10.8-10.62,28.16-10.49,38.78.31,10.5,10.67,10.5,27.8,0,38.47l-41.64,41.64-8.64,8.64c-10.7,10.71-28.06,10.72-38.77.01-2.97-2.97-5.22-6.59-6.58-10.56-6.95-1.3-14.1.91-19.1,5.9l-5.93,5.93c11.4,28.15,43.46,41.74,71.62,30.34,6.84-2.77,13.06-6.89,18.28-12.11l50.27-50.27c21.45-21.5,21.45-56.31,0-77.81Z"/>
      </g>
    </g>
  </g>
</svg>