<?xml version="1.0" encoding="UTF-8"?>
<svg id="Calque_1" data-name="Calque 1" xmlns="http://www.w3.org/2000/svg" viewBox="0 0 1920 1080">
  <defs>
    <style>
      .cls-1 {
        fill: #cadcf9;
        stroke-width: 0px;
      }
    </style>
  </defs>
  <path class="cls-1" d="m960,379.84c-21.63,0-42.6,4.23-62.34,12.58-19.07,8.07-36.2,19.62-50.91,34.33-14.71,14.71-26.26,31.84-34.33,50.91-8.35,19.74-12.58,40.71-12.58,62.34s4.23,42.6,12.58,62.34c8.07,19.07,19.62,36.2,34.33,50.91,14.71,14.71,31.84,26.26,50.91,34.33,19.74,8.35,40.71,12.58,62.34,12.58s42.6-4.23,62.34-12.58c19.07-8.07,36.2-19.62,50.91-34.33,14.71-14.71,26.26-31.84,34.33-50.91,8.35-19.74,12.58-40.71,12.58-62.34s-4.23-42.6-12.58-62.34c-8.07-19.07-19.62-36.2-34.33-50.91-14.71-14.71-31.84-26.26-50.91-34.33-19.74-8.35-40.71-12.58-62.34-12.58m0-13.35c95.83,0,173.51,77.68,173.51,173.51s-77.68,173.51-173.51,173.51-173.51-77.68-173.51-173.51,77.68-173.51,173.51-173.51Z"/>
  <path class="cls-1" d="m1036.54,502.23c0,2.27-.81,4.52-2.37,6.28l-67.09,75.36c-1.81,2.04-4.38,3.21-7.06,3.21s-5.25-1.17-7.06-3.21l-67.12-75.4c-2.65-2.97-3.13-7.33-1.22-10.85,1.38-2.55,3.88-4.28,6.67-4.63,2.81-.35,5.64.73,7.57,2.89l61.17,68.71,61.12-68.66c1.92-2.16,4.75-3.24,7.56-2.89,2.79.34,5.29,2.07,6.67,4.62.79,1.43,1.16,3.01,1.16,4.57Z"/>
</svg>