<?xml version="1.0" encoding="UTF-8"?>
<svg id="Calque_1" data-name="Calque 1" xmlns="http://www.w3.org/2000/svg" viewBox="0 0 1920 1080">
  <defs>
    <style>
      .cls-1 {
        fill: #cadcf9;
        stroke-width: 0px;
      }
    </style>
  </defs>
  <g id="Groupe_200" data-name="Groupe 200">
    <path id="Tracé_248" data-name="Tracé 248" class="cls-1" d="m850.56,636.23h12.9c3.47.08,6.34-2.66,6.42-6.13.08-3.47-2.66-6.34-6.13-6.42-.1,0-.19,0-.29,0h-12.9c-3.47.08-6.21,2.96-6.13,6.42.08,3.35,2.78,6.05,6.13,6.13Z"/>
    <path id="Tracé_249" data-name="Tracé 249" class="cls-1" d="m813.22,636.12h12.9c3.47-.08,6.21-2.96,6.13-6.42-.08-3.35-2.78-6.05-6.13-6.13h-12.9c-3.47.08-6.21,2.96-6.13,6.42.08,3.35,2.78,6.05,6.13,6.13Z"/>
    <path id="Tracé_250" data-name="Tracé 250" class="cls-1" d="m863.62,649.25h-12.9c-3.47-.08-6.34,2.66-6.42,6.13-.08,3.47,2.66,6.34,6.13,6.42.1,0,.19,0,.29,0h12.9c3.47-.08,6.21-2.96,6.13-6.42-.08-3.35-2.78-6.05-6.13-6.13Z"/>
    <path id="Tracé_251" data-name="Tracé 251" class="cls-1" d="m826.29,649.14h-12.9c-3.47-.08-6.34,2.66-6.42,6.13-.08,3.47,2.66,6.34,6.13,6.42.1,0,.19,0,.29,0h12.9c3.47.08,6.34-2.66,6.42-6.13.08-3.47-2.66-6.34-6.13-6.42-.1,0-.19,0-.29,0Z"/>
    <path id="Tracé_252" data-name="Tracé 252" class="cls-1" d="m953.59,491.57h12.9c3.47.08,6.34-2.66,6.42-6.13.08-3.47-2.66-6.34-6.13-6.42-.1,0-.19,0-.29,0h-12.9c-3.47-.08-6.34,2.66-6.42,6.13-.08,3.47,2.66,6.34,6.13,6.42.1,0,.19,0,.29,0Z"/>
    <path id="Tracé_253" data-name="Tracé 253" class="cls-1" d="m916.27,491.46h12.9c3.47.08,6.34-2.66,6.42-6.13.08-3.47-2.66-6.34-6.13-6.42-.1,0-.19,0-.29,0h-12.9c-3.47.08-6.21,2.96-6.13,6.42.08,3.35,2.78,6.05,6.13,6.13Z"/>
    <path id="Tracé_254" data-name="Tracé 254" class="cls-1" d="m966.66,504.59h-12.9c-3.47-.08-6.34,2.66-6.42,6.13-.08,3.47,2.66,6.34,6.13,6.42.1,0,.19,0,.29,0h12.9c3.47.08,6.34-2.66,6.42-6.13.08-3.47-2.66-6.34-6.13-6.42-.1,0-.19,0-.29,0Z"/>
    <path id="Tracé_255" data-name="Tracé 255" class="cls-1" d="m929.33,504.48h-12.9c-3.47-.08-6.34,2.66-6.42,6.13-.08,3.47,2.66,6.34,6.13,6.42.1,0,.19,0,.29,0h12.9c3.47-.08,6.21-2.96,6.13-6.42-.08-3.35-2.78-6.05-6.13-6.13Z"/>
    <path id="Tracé_256" data-name="Tracé 256" class="cls-1" d="m966.74,575.95h-12.9c-3.47-.08-6.34,2.66-6.42,6.13-.08,3.47,2.66,6.34,6.13,6.42.1,0,.19,0,.29,0h12.9c3.47.08,6.34-2.66,6.42-6.13.08-3.47-2.66-6.34-6.13-6.42-.1,0-.19,0-.29,0Z"/>
    <path id="Tracé_257" data-name="Tracé 257" class="cls-1" d="m953.68,562.93h12.9c3.47-.08,6.21-2.96,6.13-6.42-.08-3.35-2.78-6.05-6.13-6.13h-12.9c-3.47.08-6.21,2.96-6.13,6.42.08,3.35,2.78,6.05,6.13,6.13Z"/>
    <path id="Tracé_258" data-name="Tracé 258" class="cls-1" d="m929.24,550.27h-12.9c-3.47.08-6.21,2.96-6.13,6.42.08,3.35,2.78,6.05,6.13,6.13h12.9c3.47-.08,6.21-2.96,6.13-6.42-.08-3.35-2.78-6.05-6.13-6.13Z"/>
    <path id="Tracé_259" data-name="Tracé 259" class="cls-1" d="m929.41,575.84h-12.9c-3.47-.08-6.34,2.66-6.42,6.13-.08,3.47,2.66,6.34,6.13,6.42.1,0,.19,0,.29,0h12.9c3.47-.08,6.21-2.96,6.13-6.42-.08-3.35-2.78-6.05-6.13-6.13Z"/>
    <path id="Tracé_260" data-name="Tracé 260" class="cls-1" d="m953.68,634.06h12.9c3.47-.08,6.21-2.96,6.13-6.42-.08-3.35-2.78-6.05-6.13-6.13h-12.9c-3.47.08-6.21,2.96-6.13,6.42.08,3.35,2.78,6.05,6.13,6.13Z"/>
    <path id="Tracé_261" data-name="Tracé 261" class="cls-1" d="m916.35,633.95h12.9c3.47-.08,6.21-2.96,6.13-6.42-.08-3.35-2.78-6.05-6.13-6.13h-12.9c-3.47.08-6.21,2.96-6.13,6.42.08,3.35,2.78,6.05,6.13,6.13Z"/>
    <path id="Tracé_262" data-name="Tracé 262" class="cls-1" d="m966.74,647.08h-12.9c-3.47-.08-6.34,2.66-6.42,6.13-.08,3.47,2.66,6.34,6.13,6.42.1,0,.19,0,.29,0h12.9c3.47.08,6.34-2.66,6.42-6.13.08-3.47-2.66-6.34-6.13-6.42-.1,0-.19,0-.29,0Z"/>
    <path id="Tracé_263" data-name="Tracé 263" class="cls-1" d="m929.41,646.96h-12.9c-3.47-.08-6.34,2.66-6.42,6.13-.08,3.47,2.66,6.34,6.13,6.42.1,0,.19,0,.29,0h12.9c3.47-.08,6.21-2.96,6.13-6.42-.08-3.35-2.78-6.05-6.13-6.13Z"/>
    <path id="Tracé_264" data-name="Tracé 264" class="cls-1" d="m1078.78,653.88c-2.67-2.21-6.63-1.84-8.84.83-2.21,2.67-1.84,6.63.83,8.84s6.63,1.84,8.84-.83c0,0,0,0,0,0,2.21-2.67,1.83-6.62-.83-8.83,0,0,0,0,0,0Z"/>
    <path id="Tracé_265" data-name="Tracé 265" class="cls-1" d="m1110.86,540.42c-9.65-16.14-20.31-31.66-31.9-46.46-2.16-2.71-6.11-3.15-8.82-.99-.6.48-1.1,1.06-1.49,1.71-1.71,2.89-41.63,71.29-21.57,110.06,6.27,12.11,17.41,19.95,33.2,23.41-.93,3.5-2.04,6.96-3.33,10.34-1.36,3.19.12,6.88,3.3,8.24,3.19,1.36,6.88-.12,8.24-3.3.02-.05.04-.1.06-.14,1.71-4.37,3.14-8.84,4.3-13.39,2.03.14,3.97.23,5.84.23,15.65,0,26.18-4.9,31.36-14.61,8.05-15.1,1.77-39.66-19.18-75.08Zm8.1,69.18c-3.1,5.82-10.96,8.47-23.37,7.89,2.61-14.23,3.19-28.75,1.72-43.14-.37-3.45-3.47-5.94-6.92-5.57-3.45.37-5.94,3.47-5.57,6.92h0c1.34,13.43.75,26.98-1.76,40.24-12.13-2.61-20.31-8.19-24.84-16.94-13.28-25.65,7.2-71.09,16.76-89.66,24.2,32.03,53.77,81.91,43.99,100.27h-.01Z"/>
    <path id="Tracé_266" data-name="Tracé 266" class="cls-1" d="m1066.62,669.65c-2.87-1.94-6.77-1.18-8.71,1.69-19.18,28.43-50.19,30.78-61.29,30.64l1.24-238.49c0-1.03-.24-2.05-.73-2.96l-48.43-91.72c-1.62-3.07-5.42-4.24-8.48-2.62-1.08.57-1.96,1.44-2.56,2.5l-50.85,91.67c-.52.95-.79,2.01-.79,3.09l1.11,146.53-41.42-86.9c-1.49-3.13-5.24-4.46-8.37-2.97-1.23.58-2.23,1.55-2.86,2.76l-47.2,90.28c-.48.91-.72,1.93-.72,2.97l.83,92c.03,3.44,2.83,6.22,6.28,6.22h91.01c1.67,0,3.28-.67,4.46-1.86.11-.11.21-.23.31-.34,1.19,1.35,2.89,2.12,4.69,2.12l96.15.08h0c.31,0,.62-.03.93-.08.45.05,2.61.25,6.03.25,14.03,0,49.01-3.52,71.05-36.17,1.94-2.87,1.19-6.77-1.68-8.71Zm-266.72,32.16l-.76-84.21,40.66-77.76,37.8,79.32.76,82.64h-78.45Zm184.17,0l-83.69-.07-1.79-236.72,44.43-80.09,42.28,80.08-1.23,236.8Z"/>
  </g>
</svg>