<svg width="347" height="350" viewBox="0 0 347 350" fill="none" xmlns="http://www.w3.org/2000/svg">
<path d="M63.9999 270.769H76.8999C80.3699 270.849 83.2399 268.109 83.3199 264.639C83.3999 261.169 80.6599 258.299 77.1899 258.219C77.0899 258.219 76.9999 258.219 76.8999 258.219H63.9999C60.5299 258.299 57.7899 261.179 57.8699 264.639C57.9499 267.989 60.6499 270.689 63.9999 270.769Z" fill="#CADCF9"/>
<path d="M26.66 270.659H39.56C43.03 270.579 45.77 267.699 45.69 264.239C45.61 260.889 42.91 258.189 39.56 258.109H26.66C23.19 258.189 20.45 261.069 20.53 264.529C20.61 267.879 23.31 270.579 26.66 270.659Z" fill="#CADCF9"/>
<path d="M77.06 283.789H64.16C60.69 283.709 57.82 286.449 57.74 289.919C57.66 293.389 60.4 296.259 63.87 296.339C63.97 296.339 64.06 296.339 64.16 296.339H77.06C80.53 296.259 83.27 293.379 83.19 289.919C83.11 286.569 80.41 283.869 77.06 283.789Z" fill="#CADCF9"/>
<path d="M39.7299 283.679H26.83C23.36 283.599 20.4899 286.339 20.4099 289.809C20.3299 293.279 23.0699 296.149 26.5399 296.229C26.6399 296.229 26.73 296.229 26.83 296.229H39.7299C43.1999 296.309 46.07 293.569 46.15 290.099C46.23 286.629 43.49 283.759 40.02 283.679C39.92 283.679 39.8299 283.679 39.7299 283.679Z" fill="#CADCF9"/>
<path d="M167.03 126.109H179.93C183.4 126.189 186.27 123.449 186.35 119.979C186.43 116.509 183.69 113.639 180.22 113.559C180.12 113.559 180.03 113.559 179.93 113.559H167.03C163.56 113.479 160.69 116.219 160.61 119.689C160.53 123.159 163.27 126.029 166.74 126.109C166.84 126.109 166.93 126.109 167.03 126.109Z" fill="#CADCF9"/>
<path d="M129.71 125.999H142.61C146.08 126.079 148.95 123.339 149.03 119.869C149.11 116.399 146.37 113.529 142.9 113.449C142.8 113.449 142.71 113.449 142.61 113.449H129.71C126.24 113.529 123.5 116.409 123.58 119.869C123.66 123.219 126.36 125.919 129.71 125.999Z" fill="#CADCF9"/>
<path d="M180.1 139.129H167.2C163.73 139.049 160.86 141.789 160.78 145.259C160.7 148.729 163.44 151.599 166.91 151.679C167.01 151.679 167.1 151.679 167.2 151.679H180.1C183.57 151.759 186.44 149.019 186.52 145.549C186.6 142.079 183.86 139.209 180.39 139.129C180.29 139.129 180.2 139.129 180.1 139.129Z" fill="#CADCF9"/>
<path d="M142.77 139.019H129.87C126.4 138.939 123.53 141.679 123.45 145.149C123.37 148.619 126.11 151.489 129.58 151.569C129.68 151.569 129.77 151.569 129.87 151.569H142.77C146.24 151.489 148.98 148.609 148.9 145.149C148.82 141.799 146.12 139.099 142.77 139.019Z" fill="#CADCF9"/>
<path d="M180.18 210.489H167.28C163.81 210.409 160.94 213.149 160.86 216.619C160.78 220.089 163.52 222.959 166.99 223.039C167.09 223.039 167.18 223.039 167.28 223.039H180.18C183.65 223.119 186.52 220.379 186.6 216.909C186.68 213.439 183.94 210.569 180.47 210.489C180.37 210.489 180.28 210.489 180.18 210.489Z" fill="#CADCF9"/>
<path d="M167.12 197.469H180.02C183.49 197.389 186.23 194.509 186.15 191.049C186.07 187.699 183.37 184.999 180.02 184.919H167.12C163.65 184.999 160.91 187.879 160.99 191.339C161.07 194.689 163.77 197.389 167.12 197.469Z" fill="#CADCF9"/>
<path d="M142.68 184.809H129.78C126.31 184.889 123.57 187.769 123.65 191.229C123.73 194.579 126.43 197.279 129.78 197.359H142.68C146.15 197.279 148.89 194.399 148.81 190.939C148.73 187.589 146.03 184.889 142.68 184.809Z" fill="#CADCF9"/>
<path d="M142.85 210.379H129.95C126.48 210.299 123.61 213.039 123.53 216.509C123.45 219.979 126.19 222.849 129.66 222.929C129.76 222.929 129.85 222.929 129.95 222.929H142.85C146.32 222.849 149.06 219.969 148.98 216.509C148.9 213.159 146.2 210.459 142.85 210.379Z" fill="#CADCF9"/>
<path d="M167.12 268.599H180.02C183.49 268.519 186.23 265.639 186.15 262.179C186.07 258.829 183.37 256.129 180.02 256.049H167.12C163.65 256.129 160.91 259.009 160.99 262.469C161.07 265.819 163.77 268.519 167.12 268.599Z" fill="#CADCF9"/>
<path d="M129.79 268.489H142.69C146.16 268.409 148.9 265.529 148.82 262.069C148.74 258.719 146.04 256.019 142.69 255.939H129.79C126.32 256.019 123.58 258.899 123.66 262.359C123.74 265.709 126.44 268.409 129.79 268.489Z" fill="#CADCF9"/>
<path d="M180.18 281.619H167.28C163.81 281.539 160.94 284.279 160.86 287.749C160.78 291.219 163.52 294.089 166.99 294.169C167.09 294.169 167.18 294.169 167.28 294.169H180.18C183.65 294.249 186.52 291.509 186.6 288.039C186.68 284.569 183.94 281.699 180.47 281.619C180.37 281.619 180.28 281.619 180.18 281.619Z" fill="#CADCF9"/>
<path d="M142.85 281.499H129.95C126.48 281.419 123.61 284.159 123.53 287.629C123.45 291.099 126.19 293.969 129.66 294.049C129.76 294.049 129.85 294.049 129.95 294.049H142.85C146.32 293.969 149.06 291.089 148.98 287.629C148.9 284.279 146.2 281.579 142.85 281.499Z" fill="#CADCF9"/>
<path d="M292.22 288.419C289.55 286.209 285.59 286.579 283.38 289.249C281.17 291.919 281.54 295.879 284.21 298.089C286.88 300.299 290.84 299.929 293.05 297.259C295.26 294.589 294.88 290.639 292.22 288.429V288.419Z" fill="#CADCF9"/>
<path d="M324.3 174.959C314.65 158.819 303.99 143.299 292.4 128.499C290.24 125.789 286.29 125.349 283.58 127.509C282.98 127.989 282.48 128.569 282.09 129.219C280.38 132.109 240.46 200.509 260.52 239.279C266.79 251.389 277.93 259.229 293.72 262.689C292.79 266.189 291.68 269.649 290.39 273.029C289.03 276.219 290.51 279.909 293.69 281.269C296.88 282.629 300.57 281.149 301.93 277.969C301.95 277.919 301.97 277.869 301.99 277.829C303.7 273.459 305.13 268.989 306.29 264.439C308.32 264.579 310.26 264.669 312.13 264.669C327.78 264.669 338.31 259.769 343.49 250.059C351.54 234.959 345.26 210.399 324.31 174.979L324.3 174.959ZM332.4 244.139C329.3 249.959 321.44 252.609 309.03 252.029C311.64 237.799 312.22 223.279 310.75 208.889C310.38 205.439 307.28 202.949 303.83 203.319C300.38 203.689 297.89 206.789 298.26 210.239C299.6 223.669 299.01 237.219 296.5 250.479C284.37 247.869 276.19 242.289 271.66 233.539C258.38 207.889 278.86 162.449 288.42 143.879C312.62 175.909 342.19 225.789 332.41 244.149H332.4V244.139Z" fill="#CADCF9"/>
<path d="M280.06 304.189C277.19 302.249 273.29 303.009 271.35 305.879C252.17 334.309 221.16 336.659 210.06 336.519L211.3 98.0289C211.3 96.9989 211.06 95.9789 210.57 95.0689L162.14 3.34893C160.52 0.278929 156.72 -0.891066 153.66 0.728934C152.58 1.29893 151.7 2.16893 151.1 3.22893L100.25 94.8989C99.73 95.8489 99.46 96.9089 99.46 97.9889L100.57 244.519L59.15 157.619C57.66 154.489 53.91 153.159 50.78 154.649C49.55 155.229 48.55 156.199 47.92 157.409L0.720032 247.689C0.240032 248.599 0 249.619 0 250.659L0.830017 342.659C0.860017 346.099 3.65999 348.879 7.10999 348.879H98.12C99.79 348.879 101.4 348.209 102.58 347.019C102.69 346.909 102.79 346.789 102.89 346.679C104.08 348.029 105.78 348.799 107.58 348.799L203.73 348.879C204.04 348.879 204.35 348.849 204.66 348.799C205.11 348.849 207.27 349.049 210.69 349.049C224.72 349.049 259.7 345.529 281.74 312.879C283.68 310.009 282.93 306.109 280.06 304.169V304.189ZM13.34 336.349L12.58 252.139L53.24 174.379L91.04 253.699L91.8 336.339H13.35L13.34 336.349ZM197.51 336.349L113.82 336.279L112.03 99.5589L156.46 19.4689L198.74 99.5489L197.51 336.349Z" fill="#CADCF9"/>
</svg>
