<?xml version="1.0" encoding="UTF-8"?>
<svg id="Calque_1" data-name="Calque 1" xmlns="http://www.w3.org/2000/svg" viewBox="0 0 1920 1080">
  <defs>
    <style>
      .cls-1 {
        fill: #cadcf9;
        stroke-width: 0px;
      }
    </style>
  </defs>
  <g id="Groupe_138" data-name="Groupe 138">
    <g id="Groupe_79" data-name="Groupe 79">
      <g id="Groupe_78" data-name="Groupe 78">
        <path id="Tracé_73" data-name="Tracé 73" class="cls-1" d="m1037.91,445.4c-9.53,0-17.25,7.72-17.25,17.25,0,9.53,7.72,17.25,17.25,17.25s17.25-7.72,17.25-17.25h0c0-9.53-7.72-17.25-17.25-17.25Z"/>
        <path id="Tracé_74" data-name="Tracé 74" class="cls-1" d="m961.19,467.53c-40.02,0-72.47,32.45-72.47,72.47s32.45,72.47,72.47,72.47,72.47-32.45,72.47-72.47h0c-.05-40-32.47-72.42-72.47-72.47Zm0,118.9c-25.64,0-46.43-20.78-46.43-46.42,0-25.64,20.78-46.43,46.42-46.43,25.64,0,46.43,20.78,46.43,46.42h0c-.03,25.63-20.79,46.4-46.42,46.43Z"/>
        <path id="Tracé_75" data-name="Tracé 75" class="cls-1" d="m1018.75,687.14h-117.5c-48.79-.06-88.34-39.6-88.39-88.39v-117.5c.05-48.8,39.6-88.34,88.39-88.39h117.5c48.8.05,88.34,39.6,88.4,88.39v117.5c-.06,48.8-39.6,88.34-88.4,88.39Zm-117.5-266.6c-33.51.04-60.67,27.2-60.71,60.71v117.5c.04,33.51,27.2,60.67,60.71,60.71h117.5c33.52-.04,60.68-27.19,60.71-60.71v-117.5c-.04-33.51-27.2-60.67-60.71-60.71h-117.5Z"/>
      </g>
    </g>
  </g>
</svg>