<svg width="295" height="295" viewBox="0 0 295 295" fill="none" xmlns="http://www.w3.org/2000/svg">
<path d="M225.05 52.54C215.52 52.54 207.8 60.26 207.8 69.79C207.8 79.32 215.52 87.04 225.05 87.04C234.58 87.04 242.3 79.32 242.3 69.79C242.3 60.26 234.58 52.54 225.05 52.54Z" fill="#CADCF9"/>
<path d="M148.33 74.6699C108.31 74.6699 75.8599 107.12 75.8599 147.14C75.8599 187.16 108.31 219.61 148.33 219.61C188.35 219.61 220.8 187.16 220.8 147.14C220.75 107.14 188.33 74.7199 148.33 74.6699ZM148.33 193.57C122.69 193.57 101.9 172.79 101.9 147.15C101.9 121.51 122.68 100.72 148.32 100.72C173.96 100.72 194.75 121.5 194.75 147.14C194.72 172.77 173.96 193.54 148.33 193.57Z" fill="#CADCF9"/>
<path d="M205.89 294.28H88.39C39.6 294.22 0.05 254.68 0 205.89V88.39C0.05 39.59 39.6 0.05 88.39 0H205.89C254.69 0.05 294.23 39.6 294.29 88.39V205.89C294.23 254.69 254.69 294.23 205.89 294.28ZM88.39 27.68C54.88 27.72 27.72 54.88 27.68 88.39V205.89C27.72 239.4 54.88 266.56 88.39 266.6H205.89C239.41 266.56 266.57 239.41 266.6 205.89V88.39C266.56 54.88 239.4 27.72 205.89 27.68H88.39Z" fill="#CADCF9"/>
</svg>
