<svg width="1250" height="463" viewBox="0 0 1250 463" fill="none" xmlns="http://www.w3.org/2000/svg">
<path d="M172.38 318.52H174.32L238.31 454.86H229.56L213.81 420.82H133.48L117.34 454.86H108.59L172.38 318.52ZM210.5 413.63L173.35 333.3L136.79 413.63H210.5Z" fill="#CADCF9"/>
<path d="M258.34 320.65H291.21C304.56 320.65 314.81 323.5 321.94 329.21C329.07 334.92 332.64 343.02 332.64 353.52C332.64 360.13 330.92 365.87 327.49 370.73C324.05 375.59 319.29 379.06 313.19 381.14C324.21 382.44 332.83 386.26 339.06 392.61C345.28 398.96 348.4 407.07 348.4 416.92C348.4 442.2 331.87 454.85 298.8 454.85H258.34V320.65ZM295.68 379.19C304.63 379.19 311.73 376.92 316.98 372.38C322.23 367.84 324.86 361.68 324.86 353.9C324.86 345.47 321.94 339.02 316.11 334.55C310.28 330.08 301.91 327.84 291.02 327.84H265.93V379.19H295.69H295.68ZM298.4 447.65C326.53 447.65 340.6 437.34 340.6 416.72C340.6 407.13 337.13 399.64 330.2 394.26C323.26 388.88 313.63 386.19 301.32 386.19H265.92V447.65H298.4Z" fill="#CADCF9"/>
<path d="M376.01 320.65H383.6V454.85H376.01V320.65Z" fill="#CADCF9"/>
<path d="M419.38 318.71H420.55L501.07 384.06V320.65H508.85V454.85H501.07V393.58L426.97 333.29V454.85H419.38V318.7V318.71Z" fill="#CADCF9"/>
<path d="M544.439 320.65H607.849V327.85H552.029V398.65H617.189V405.85H552.029V447.67H630.019V454.87H544.439V320.67V320.65Z" fill="#CADCF9"/>
<path d="M677.67 327.85H633.13V320.65H729.79V327.85H685.25V454.86H677.66V327.85H677.67Z" fill="#CADCF9"/>
<path d="M910.7 391.51C910.7 430.78 878.75 462.73 839.49 462.73C800.23 462.73 770.53 433.24 768.4 395.59L768.37 395.07H773.72C775.69 430 804.6 457.56 839.49 457.56C874.38 457.56 905.33 427.93 905.33 391.51C905.33 355.09 875.79 325.46 839.49 325.46C803.19 325.46 773.89 354.89 773.65 391.08V391.58H768.28V391.09C768.52 352.06 800.47 320.31 839.49 320.31C878.51 320.31 910.7 352.26 910.7 391.52V391.51Z" fill="#CADCF9"/>
<path d="M1066.73 457.79L1063.59 461.46L981.33 392.77L938.86 426.59V459.59H933.69V323.42H938.86V420.11L1063.19 321.77L1066.31 325.66L1065.92 325.97L985.24 389.64L1066.73 457.79Z" fill="#CADCF9"/>
<path d="M1157.21 321.61L1157.07 321.33H1152.7L1084.97 459.29L1084.75 459.74L1089.19 461.83L1103.25 433.09H1206.52L1220.58 461.83L1225.02 459.74L1157.21 321.6V321.61ZM1203.95 428.15H1105.82L1154.88 328.16L1203.94 428.15H1203.95Z" fill="#CADCF9"/>
<path d="M1249.25 323.42H1244.08V459.59H1249.25V323.42Z" fill="#CADCF9"/>
<path d="M9.32001 422.03C3.11001 411.68 0 399.59 0 385.74C0 371.89 3.14 360.94 9.41 350.91C15.68 340.89 24.45 333.06 35.7 327.43C46.95 321.8 59.89 318.99 74.51 318.99C76.71 318.99 79.1 319.12 81.69 319.38C84.28 319.64 86.47 320.03 88.29 320.54V327.72C86.74 327.33 84.6 327.01 81.89 326.75C79.17 326.49 76.71 326.36 74.52 326.36C61.45 326.36 49.91 328.78 39.88 333.64C29.85 338.49 22.03 345.35 16.4 354.21C10.77 363.07 7.95999 373.52 7.95999 385.55C7.95999 397.58 10.74 408.64 16.3 417.96C21.86 427.28 29.62 434.52 39.59 439.69C49.55 444.87 61.06 447.45 74.13 447.45C76.72 447.45 79.43 447.35 82.28 447.16C85.12 446.97 87.45 446.74 89.26 446.48V453.66C87.19 454.05 84.83 454.34 82.18 454.53C79.53 454.72 76.78 454.82 73.93 454.82C59.18 454.82 46.28 451.94 35.22 446.18C24.16 440.43 15.52 432.37 9.31 422.02L9.32001 422.03Z" fill="#CADCF9"/>
<path d="M618.401 11.5502C618.401 11.5502 618.451 11.5802 618.471 11.6002C615.161 9.22016 611.991 7.58018 609.311 6.43018H609.331C611.291 7.34018 613.201 8.33017 615.051 9.42017C616.191 10.1002 617.311 10.8002 618.401 11.5502Z" fill="#CADCF9"/>
<path d="M618.481 11.6002C618.461 11.5802 618.431 11.5702 618.411 11.5502C617.321 10.8002 616.201 10.0902 615.061 9.4202C613.211 8.3302 611.301 7.3402 609.341 6.4502L629.731 22.9202C627.451 19.7102 623.851 15.4502 618.491 11.6002H618.481Z" fill="#CADCF9"/>
<path d="M652.32 198.3C641.39 198.3 630.83 195.54 621.72 190.3C621.23 190.02 620.78 189.68 620.37 189.29L619.65 188.62L620.85 187.83C627.17 183.68 629.32 181.44 633.6 176.98L634.22 176.33L634.94 176.63C640.84 178.99 646.83 180.29 651.82 180.29C677.21 180.29 698.65 158.27 698.65 132.22V66.07C698.65 39.57 677.64 18.01 651.82 18.01C649.45 18.01 647.05 18.22 644.69 18.64L643.89 18.78L643.35 17.85C641.06 13.92 638.29 10.29 635.1 7.04001C634.38 6.33001 633.63 5.64 632.89 4.97L631.38 3.62003L633.3 2.99002C639.3 1.00002 645.45 0 651.58 0C687.62 0 716.93 29.64 716.93 66.08V132.23C716.93 149.79 710.14 166.37 697.82 178.91C685.54 191.42 669.38 198.3 652.31 198.3H652.32ZM623.71 188.73C632.28 193.46 642.13 195.96 652.32 195.96C686.66 195.96 714.6 167.37 714.6 132.22V66.07C714.6 30.92 686.33 2.33002 651.58 2.33002C646.35 2.33002 641.11 3.09002 635.96 4.61002C636.23 4.86002 636.49 5.12003 636.75 5.37003L636.85 5.47C640 8.72 642.78 12.33 645.1 16.2C647.33 15.85 649.59 15.67 651.83 15.67C678.94 15.67 701 38.28 701 66.07V132.22C701 159.55 678.48 182.63 651.83 182.63C645.43 182.63 639.17 180.77 634.82 179.09C631.17 182.88 628.84 185.22 623.71 188.72V188.73Z" fill="#CADCF9"/>
<path d="M618.06 166.23C618 166.17 617.93 166.11 617.87 166.04C617.93 166.11 617.99 166.18 618.05 166.24L618.06 166.23Z" fill="#CADCF9"/>
<path d="M615.13 162.77C615.13 162.77 615.19 162.85 615.22 162.89C615.19 162.85 615.16 162.81 615.13 162.77Z" fill="#CADCF9"/>
<path d="M618.06 166.23C618 166.17 617.94 166.1 617.88 166.04C617.77 165.92 617.65 165.81 617.53 165.69C616.66 164.77 615.96 163.81 615.22 162.89C615.19 162.85 615.16 162.81 615.13 162.77C615.13 162.77 615.13 162.77 615.13 162.76C615.13 162.76 615.13 162.76 615.13 162.77C608.74 154.4 605.28 143.95 605.28 132.22V66.0798C605.28 64.0498 605.28 62.1598 605.43 60.0898H590.11C589.93 62.0598 589.84 64.0598 589.84 66.0798V132.22C589.84 148.77 596.53 164.37 606.36 175.88C604.78 176.79 603.16 177.6 601.52 178.3C596.06 180.61 590.31 181.71 584.55 181.71C560.77 181.71 537.72 163.07 536.98 132.18V65.9798C538.45 34.0998 561.74 16.1998 585.04 16.1998C590.82 16.1998 596.61 17.3298 602.08 19.6598C603.62 20.3098 605.14 21.0598 606.62 21.9098C606.65 21.9198 606.67 21.9398 606.7 21.9598C612.38 25.4398 615.29 28.9798 617.82 32.7598C619.1 31.2898 620.48 29.8998 621.93 28.6098C624.33 26.4598 626.94 24.5498 629.71 22.9298L609.32 6.45978C601.62 2.95978 593.09 1.00977 584.06 1.00977C549 1.00977 521.54 30.1898 521.54 65.9898V132.19C521.54 167.99 549.01 197.17 584.06 197.17C595.34 197.17 605.86 194.16 614.93 188.87C619.91 185.97 624.44 182.38 628.44 178.24C629.18 177.47 629.9 176.66 630.61 175.85C626.51 173.56 622.15 170.46 618.06 166.25V166.23Z" fill="#CADCF9"/>
<path d="M617.88 166.04C616.95 165.03 616.06 163.97 615.23 162.89C615.97 163.81 616.67 164.78 617.54 165.69C617.65 165.81 617.771 165.92 617.891 166.04H617.88Z" fill="#CADCF9"/>
</svg>
