<svg width="1389" height="515" viewBox="0 0 1389 515" fill="none" xmlns="http://www.w3.org/2000/svg">
<path d="M191.57 354.02H193.73L264.85 505.56H255.12L237.61 467.73H148.33L130.39 505.56H120.66L191.56 354.02H191.57ZM233.94 459.73L192.65 370.45L152.01 459.73H233.94Z" fill="#2D5299"/>
<path d="M287.11 356.4H323.64C338.48 356.4 349.87 359.57 357.8 365.91C365.72 372.25 369.69 381.26 369.69 392.93C369.69 400.28 367.78 406.66 363.96 412.06C360.14 417.46 354.84 421.32 348.07 423.63C360.32 425.07 369.9 429.32 376.82 436.38C383.74 443.44 387.2 452.45 387.2 463.4C387.2 491.5 368.83 505.55 332.08 505.55H287.12V356.39L287.11 356.4ZM328.62 421.47C338.56 421.47 346.45 418.95 352.29 413.9C358.13 408.86 361.04 402.01 361.04 393.36C361.04 383.99 357.8 376.82 351.31 371.85C344.82 366.88 335.53 364.39 323.42 364.39H295.53V421.46H328.6L328.62 421.47ZM331.65 497.56C362.92 497.56 378.56 486.1 378.56 463.19C378.56 452.53 374.7 444.2 367 438.22C359.29 432.24 348.59 429.25 334.9 429.25H295.56V497.56H331.66H331.65Z" fill="#2D5299"/>
<path d="M417.9 356.4H426.33V505.56H417.9V356.4Z" fill="#2D5299"/>
<path d="M466.101 354.24H467.401L556.901 426.87V356.4H565.551V505.56H556.901V437.47L474.541 370.46V505.57H466.111V354.25L466.101 354.24Z" fill="#2D5299"/>
<path d="M605.101 356.4H675.571V364.4H613.531V443.09H685.951V451.09H613.531V497.57H700.211V505.57H605.101V356.41V356.4Z" fill="#2D5299"/>
<path d="M753.17 364.4H703.67V356.4H811.11V364.4H761.61V505.56H753.18V364.4H753.17Z" fill="#2D5299"/>
<path d="M1012.17 435.15C1012.17 478.8 976.66 514.31 933.02 514.31C889.38 514.31 856.38 481.54 854.01 439.69L853.98 439.11H859.92C862.11 477.94 894.24 508.57 933.02 508.57C971.8 508.57 1006.2 475.64 1006.2 435.16C1006.2 394.68 973.37 361.75 933.02 361.75C892.67 361.75 860.11 394.46 859.84 434.68V435.24H853.88V434.69C854.14 391.31 889.65 356.02 933.03 356.02C976.41 356.02 1012.18 391.53 1012.18 435.17L1012.17 435.15Z" fill="#2D5299"/>
<path d="M1185.59 508.81L1182.09 512.9L1090.67 436.56L1043.46 474.14V510.82H1037.72V359.47H1043.46V466.93L1181.66 357.64L1185.13 361.97L1184.69 362.31L1095.02 433.07L1185.59 508.81Z" fill="#2D5299"/>
<path d="M1286.15 357.46L1286 357.15H1281.15L1205.87 510.49L1205.63 511L1210.56 513.32L1226.19 481.38H1340.96L1356.59 513.32L1361.52 511L1286.15 357.47V357.46ZM1338.1 475.87H1229.04L1283.57 364.74L1338.1 475.87Z" fill="#2D5299"/>
<path d="M1388.44 359.47H1382.7V510.82H1388.44V359.47Z" fill="#2D5299"/>
<path d="M10.35 469.07C3.45001 457.57 0 444.13 0 428.74C0 413.35 3.47999 401.17 10.46 390.03C17.43 378.89 27.18 370.19 39.68 363.93C52.19 357.68 66.56 354.55 82.82 354.55C85.26 354.55 87.92 354.69 90.8 354.98C93.67 355.27 96.12 355.7 98.13 356.27V364.25C96.41 363.82 94.03 363.46 91.01 363.17C87.99 362.88 85.26 362.74 82.81 362.74C68.29 362.74 55.45 365.44 44.31 370.83C33.17 376.22 24.47 383.85 18.21 393.69C11.96 403.54 8.82999 415.15 8.82999 428.52C8.82999 441.89 11.92 454.19 18.1 464.54C24.28 474.89 32.91 482.95 43.98 488.7C55.05 494.45 67.85 497.33 82.37 497.33C85.24 497.33 88.26 497.22 91.43 497.01C94.59 496.79 97.18 496.55 99.19 496.25V504.23C96.89 504.66 94.26 504.99 91.32 505.2C88.37 505.42 85.31 505.52 82.15 505.52C65.76 505.52 51.42 502.32 39.12 495.92C26.83 489.52 17.23 480.57 10.33 469.07H10.35Z" fill="#2D5299"/>
<path d="M687.29 12.8499C687.29 12.8499 687.34 12.8799 687.37 12.8999C683.7 10.2599 680.16 8.42991 677.18 7.15991L677.2 7.17992C679.38 8.16992 681.51 9.2699 683.56 10.4799C684.83 11.2299 686.07 12.0199 687.29 12.8499Z" fill="#2D5299"/>
<path d="M687.38 12.91C687.35 12.89 687.33 12.8799 687.3 12.8599C686.08 12.0299 684.84 11.2399 683.57 10.4899C681.52 9.27994 679.39 8.17994 677.21 7.18994L699.87 25.5C697.34 21.94 693.33 17.1999 687.38 12.9199V12.91Z" fill="#2D5299"/>
<path d="M724.99 220.41C712.84 220.41 701.11 217.34 690.98 211.51C690.44 211.2 689.93 210.82 689.47 210.39L688.68 209.65L690.01 208.77C697.04 204.16 699.43 201.67 704.19 196.72L704.88 196L705.68 196.33C712.23 198.95 718.9 200.4 724.44 200.4C752.66 200.4 776.49 175.93 776.49 146.97V73.45C776.49 44 753.14 20.03 724.44 20.03C721.81 20.03 719.14 20.26 716.52 20.73L715.63 20.89L715.03 19.85C712.49 15.48 709.41 11.44 705.87 7.84001C705.07 7.05001 704.24 6.28001 703.41 5.54001L701.74 4.04001L703.87 3.33C710.54 1.12 717.37 0 724.18 0C764.23 0 796.82 32.95 796.82 73.44V146.96C796.82 166.47 789.28 184.9 775.58 198.85C761.93 212.75 743.97 220.41 725 220.41H724.99ZM693.19 209.78C702.72 215.04 713.67 217.81 724.99 217.81C763.16 217.81 794.21 186.03 794.21 146.97V73.45C794.21 34.39 762.79 2.61 724.17 2.61C718.36 2.61 712.53 3.46 706.81 5.14C707.11 5.42 707.4 5.70001 707.69 5.99001L707.8 6.10001C711.31 9.71001 714.39 13.72 716.97 18.03C719.45 17.64 721.96 17.44 724.45 17.44C754.58 17.44 779.1 42.57 779.1 73.46V146.98C779.1 177.35 754.07 203.01 724.45 203.01C717.34 203.01 710.37 200.94 705.54 199.08C701.49 203.29 698.89 205.9 693.19 209.79V209.78Z" fill="#2D5299"/>
<path d="M686.92 184.77C686.85 184.7 686.78 184.63 686.71 184.56C686.78 184.63 686.84 184.71 686.91 184.78L686.92 184.77Z" fill="#2D5299"/>
<path d="M683.66 180.92C683.66 180.92 683.73 181.01 683.76 181.05C683.73 181.01 683.69 180.96 683.66 180.92Z" fill="#2D5299"/>
<path d="M686.92 184.76C686.85 184.69 686.79 184.62 686.72 184.54C686.59 184.41 686.46 184.29 686.34 184.15C685.38 183.13 684.6 182.06 683.77 181.03C683.74 180.99 683.7 180.94 683.67 180.9C683.67 180.9 683.67 180.9 683.66 180.89C683.66 180.89 683.66 180.89 683.67 180.9C676.57 171.6 672.73 159.99 672.73 146.95V73.4401C672.73 71.1901 672.73 69.0801 672.9 66.7801H655.88C655.68 68.9701 655.58 71.1901 655.58 73.4401V146.95C655.58 165.34 663.02 182.68 673.94 195.48C672.18 196.5 670.38 197.39 668.56 198.17C662.49 200.73 656.1 201.96 649.7 201.96C623.27 201.96 597.65 181.25 596.83 146.91V73.3301C598.46 37.9001 624.35 18.0001 650.24 18.0001C656.66 18.0001 663.1 19.2501 669.18 21.8401C670.9 22.5601 672.58 23.3901 674.22 24.3401C674.25 24.3501 674.28 24.3701 674.31 24.3901C680.63 28.2601 683.86 32.1901 686.67 36.3901C688.1 34.7601 689.62 33.2201 691.24 31.7701C693.91 29.3801 696.81 27.2601 699.88 25.4601L677.22 7.15009C668.67 3.26009 659.18 1.09009 649.15 1.09009C610.19 1.09009 579.66 33.5201 579.66 73.3101V146.89C579.66 186.68 610.19 219.11 649.15 219.11C661.69 219.11 673.38 215.77 683.46 209.88C688.99 206.66 694.03 202.67 698.47 198.06C699.3 197.2 700.09 196.31 700.88 195.4C696.33 192.86 691.48 189.41 686.93 184.73L686.92 184.76Z" fill="#2D5299"/>
<path d="M686.71 184.55C685.67 183.42 684.69 182.25 683.76 181.05C684.58 182.07 685.36 183.15 686.33 184.17C686.46 184.3 686.59 184.42 686.71 184.56V184.55Z" fill="#2D5299"/>
</svg>
