<svg width="314" height="211" viewBox="0 0 314 211" fill="none" xmlns="http://www.w3.org/2000/svg">
<path d="M234.16 149.47H79.5101C77.3401 149.47 75.5901 147.71 75.5801 145.55V43.7601C75.5801 41.6001 77.3401 39.8501 79.5101 39.8501H234.16C236.32 39.8501 238.08 41.6001 238.08 43.7701V145.57C238.08 147.73 236.32 149.48 234.15 149.48L234.16 149.47ZM83.4301 141.62H230.23V47.7001H83.4301V141.62Z" fill="#CADCF9"/>
<path d="M156.83 118.15C155.85 118.15 154.91 117.79 154.18 117.13L76.86 46.6701C75.26 45.2101 75.15 42.7301 76.61 41.1201C77.35 40.3101 78.41 39.8401 79.51 39.8401H234.16C236.33 39.8401 238.08 41.6101 238.08 43.7701C238.08 44.8701 237.62 45.9201 236.81 46.6601L159.48 117.12C158.76 117.78 157.81 118.14 156.84 118.14L156.83 118.15ZM89.65 47.7001L156.84 108.92L224.03 47.7001H89.65Z" fill="#CADCF9"/>
<path d="M234.16 149.47H79.5099C77.3399 149.47 75.5799 147.7 75.5899 145.53C75.5899 144.3 76.1699 143.14 77.1599 142.4L138.43 96.46C140.14 95.13 142.61 95.44 143.94 97.15C145.27 98.86 144.96 101.33 143.25 102.66C143.21 102.69 143.18 102.71 143.14 102.74L91.2898 141.62H222.38L171.22 103.26C169.45 102 169.04 99.55 170.3 97.79C171.56 96.02 174.01 95.61 175.77 96.87C175.82 96.91 175.88 96.95 175.93 96.99L236.51 142.41C238.24 143.72 238.59 146.18 237.29 147.91C236.55 148.89 235.39 149.47 234.16 149.48V149.47Z" fill="#CADCF9"/>
<path d="M280.35 184.57H33.2999C31.1299 184.57 29.3799 182.81 29.3799 180.65V15.35C29.3799 6.87001 36.2599 0.01 44.7399 0H268.92C277.39 0 284.26 6.87001 284.27 15.35V180.65C284.27 182.81 282.52 184.57 280.36 184.57H280.35ZM37.2199 176.72H276.41V15.35C276.41 11.21 273.05 7.85001 268.91 7.85001H44.7299C40.5899 7.85001 37.2299 11.21 37.2299 15.35V176.72H37.2199Z" fill="#CADCF9"/>
<path d="M287.27 210.42H26.38C11.82 210.4 0.02 198.61 0 184.05V180.65C0 178.48 1.75999 176.72 3.92999 176.73H309.72C311.89 176.73 313.64 178.48 313.64 180.65V184.05C313.62 198.61 301.83 210.41 287.27 210.42ZM7.85999 184.57C8.15999 194.59 16.36 202.56 26.39 202.57H287.28C297.3 202.56 305.5 194.59 305.79 184.57H7.85999Z" fill="#CADCF9"/>
</svg>
