<svg width="330" height="224" viewBox="0 0 330 224" fill="none" xmlns="http://www.w3.org/2000/svg">
<path d="M226.26 223.37C180.78 223.37 140.22 202.65 127.6 172.99C126.63 170.87 127.57 168.36 129.7 167.39C131.82 166.42 134.33 167.36 135.3 169.49C135.33 169.55 135.36 169.62 135.38 169.68C146.7 196.32 184.08 214.92 226.27 214.92C245.99 215.16 265.5 210.84 283.28 202.31C284.18 201.86 285.22 201.74 286.2 201.99L314.91 209.24L308.92 185.57C308.6 184.28 308.9 182.92 309.73 181.88C316.58 173.92 320.42 163.8 320.58 153.3C320.58 125.77 292.2 101.36 251.56 93.9403C249.27 93.5203 247.75 91.3202 248.17 89.0302C248.59 86.7402 250.79 85.2203 253.08 85.6303C297.8 93.8003 329.03 121.62 329.03 153.3C328.87 165 324.86 176.31 317.63 185.51L324.84 214.04C325.41 216.3 324.03 218.6 321.77 219.16C321.09 219.33 320.39 219.33 319.71 219.16L285.64 210.56C267.06 219.2 246.78 223.57 226.28 223.35L226.26 223.37Z" fill="#CADCF9"/>
<path d="M127.75 173.53C102.09 173.8 76.69 168.3 53.44 157.42L10.36 168.31C8.09999 168.88 5.79998 167.51 5.22998 165.25C5.05998 164.57 5.05998 163.86 5.22998 163.18L14.39 126.91C5.28001 115.49 0.22 101.37 0 86.77C0 38.92 57.32 0 127.75 0C198.18 0 255.48 38.93 255.48 86.77C255.48 134.61 198.18 173.54 127.74 173.54L127.75 173.53ZM53.91 148.72C54.57 148.72 55.21 148.87 55.8 149.16C78.24 159.93 102.86 165.38 127.75 165.08C193.53 165.08 247.05 129.94 247.05 86.76C247.05 43.58 193.53 8.41998 127.75 8.41998C61.97 8.41998 8.45001 43.56 8.45001 86.76C8.65001 100.17 13.54 113.09 22.28 123.27C23.11 124.3 23.41 125.67 23.08 126.96L15.14 158.38L52.87 148.85C53.21 148.76 53.56 148.72 53.91 148.72Z" fill="#CADCF9"/>
<path d="M127.75 106.22C117 106.22 108.28 97.5201 108.27 86.7701C108.27 76.0201 116.97 67.3 127.72 67.29C138.47 67.29 147.19 75.9901 147.2 86.7401C147.19 97.5001 138.49 106.2 127.75 106.22ZM127.75 75.73C121.66 75.73 116.72 80.6601 116.72 86.7501C116.72 92.8401 121.66 97.78 127.74 97.78C133.82 97.78 138.77 92.8401 138.77 86.7601C138.77 80.6701 133.83 75.74 127.75 75.73Z" fill="#CADCF9"/>
<path d="M69.8902 106.22C59.1402 106.22 50.4302 97.4998 50.4302 86.7398C50.4302 75.9898 59.1502 67.2798 69.9102 67.2798C80.6602 67.2798 89.3702 75.9998 89.3702 86.7498C89.3602 97.4998 80.6402 106.21 69.8902 106.21V106.22ZM69.8902 75.7298C63.8002 75.7298 58.8602 80.6698 58.8602 86.7598C58.8602 92.8498 63.8002 97.7898 69.8902 97.7898C75.9802 97.7898 80.9202 92.8498 80.9202 86.7598C80.9202 80.6698 75.9802 75.7398 69.8902 75.7398V75.7298Z" fill="#CADCF9"/>
<path d="M185.59 106.22C174.84 106.22 166.12 97.5001 166.13 86.7501C166.13 76.0001 174.85 67.28 185.6 67.29C196.35 67.29 205.07 76.0101 205.06 86.7601C205.06 97.5101 196.34 106.22 185.59 106.22ZM185.59 75.7301C179.5 75.7301 174.56 80.6701 174.57 86.7601C174.57 92.8501 179.51 97.79 185.6 97.78C191.69 97.78 196.62 92.8401 196.62 86.7501C196.62 80.6601 191.68 75.7301 185.59 75.7301Z" fill="#CADCF9"/>
</svg>
