<svg width="296" height="293" viewBox="0 0 296 293" fill="none" xmlns="http://www.w3.org/2000/svg">
<path d="M197.001 124.24L232.421 123.27L234.201 152.28C234.281 153.51 234.742 154.69 235.522 155.64L246.461 169.03C248.551 171.52 252.261 171.84 254.741 169.75C257.181 167.7 257.541 164.09 255.561 161.59L245.821 149.67L243.811 116.88C243.621 113.72 240.951 111.28 237.781 111.36L200.691 112.37L191.521 90.6704L201.101 75.2104L211.251 79.8004C213.981 81.0404 217.211 80.0204 218.731 77.4304L228.551 60.8004C229.901 58.5104 229.551 55.5903 227.681 53.6903L214.181 39.9703L214.911 38.6404L229.421 43.5804C230.221 43.8504 231.071 43.9504 231.921 43.8604C263.131 70.5704 280.001 110.38 277.461 151.38H277.481C277.451 154.62 280.061 157.28 283.311 157.3C286.141 157.32 288.591 155.32 289.121 152.54V152.3C289.121 152.22 289.151 152.14 289.161 152.06C289.191 151.77 289.201 151.49 289.181 151.2C291.861 103.73 270.671 58.0404 232.701 29.4304C168.811 -18.9496 77.8015 -6.36964 29.4215 57.5204C6.63147 87.6204 -3.52854 125.41 1.09146 162.87C6.05146 200.73 26.0514 234.99 56.5714 257.94C83.2814 278.27 116.261 288.64 149.811 287.23C154.081 287.12 155.791 286.97 155.891 286.96C159.101 286.5 161.341 283.52 160.871 280.31C160.441 277.34 157.851 275.17 154.851 275.27C154.831 275.27 153.111 275.41 148.801 275.51H148.781C147.951 275.54 147.121 275.56 146.291 275.57H145.511C115.981 275.95 87.1715 266.46 63.6715 248.58C9.98148 208.1 -4.27853 133.52 30.6715 76.0804L29.5515 98.4204C29.4515 100.46 30.4115 102.41 32.1015 103.56L61.4414 123.68C61.1114 124.4 60.9215 125.18 60.9015 125.98L59.9514 159.26L59.4315 175.61C59.3515 178.08 60.8314 180.34 63.1314 181.26L78.1715 187.27L80.9215 208.26C80.9415 208.43 80.9714 208.61 81.0114 208.78L88.1314 240.7C88.5214 242.47 89.7115 243.95 91.3515 244.73L119.231 257.97C122.161 259.36 125.671 258.11 127.061 255.18C127.801 253.61 127.821 251.79 127.101 250.21L114.861 223.46L125.961 211.62L142.751 195.13C143.691 194.2 144.301 192.99 144.461 191.68L147.511 167.7C147.811 165.33 146.651 163.01 144.561 161.84L134.371 156.09L123.051 138.82C122.261 137.61 121.041 136.73 119.641 136.36L93.7714 129.52L85.2415 125.35L84.4215 108.26C84.4215 108.06 84.3915 107.87 84.3615 107.68L90.1414 97.0603L109.931 89.0404L135.691 80.3304C138.771 79.2904 140.411 75.9503 139.371 72.8803C139.001 71.8003 138.331 70.8504 137.431 70.1404L125.041 60.4103L138.311 44.4703C140.391 41.9703 140.051 38.2703 137.551 36.1903C136.971 35.7103 136.311 35.3404 135.591 35.1104L118.161 29.5003L118.061 29.4703L93.5415 22.0804C114.321 13.4804 136.911 10.2003 159.281 12.5303C176.301 14.3203 192.801 19.4004 207.881 27.4904C207.521 27.8504 207.211 28.2604 206.961 28.7104L201.741 38.1903C200.491 40.4603 200.871 43.2904 202.691 45.1404L216.081 58.7603L211.231 66.9804L201.231 62.3904C198.541 61.1704 195.371 62.1404 193.811 64.6504L179.901 87.0903C178.901 88.7103 178.741 90.7104 179.481 92.4604L191.391 120.66C192.331 122.89 194.551 124.31 196.971 124.24H197.001ZM89.1914 140.29C89.5314 140.46 89.8914 140.59 90.2614 140.69L114.511 147.1L125.381 163.68C125.891 164.47 126.591 165.12 127.411 165.58L135.411 170.09L133.121 188.13L117.701 203.27L117.531 203.44L103.651 218.25C102.021 219.99 101.601 222.54 102.591 224.71L109.761 240.37L99.0515 235.28L92.6215 206.43L89.4614 182.29C89.1814 180.18 87.7914 178.38 85.8114 177.59L71.4015 171.84L71.7915 159.59L72.7114 127.3C73.0314 127.12 73.3215 126.91 73.6015 126.67L73.7315 129.33C73.8315 131.48 75.1015 133.4 77.0315 134.34L89.2014 140.29H89.1914ZM78.8515 29.8703L114.671 40.6704L123.761 43.6003L112.181 57.5103C110.101 60.0003 110.441 63.7104 112.931 65.7904C112.971 65.8304 113.021 65.8604 113.071 65.9004L121.671 72.6504L106.041 77.9403C105.931 77.9803 105.821 78.0203 105.721 78.0603L83.8214 86.9304C82.5614 87.4404 81.5215 88.3704 80.8615 89.5704L67.7215 113.7L41.5114 95.7304L43.3114 59.8304C43.3314 59.4604 43.3114 59.1004 43.2614 58.7404C53.1614 47.1204 64.9814 37.2903 78.2014 29.6603C78.4114 29.7503 78.6215 29.8304 78.8415 29.8904L78.8515 29.8703Z" fill="#CADCF9"/>
<path d="M173.621 283.85C176.869 283.85 179.501 281.218 179.501 277.97C179.501 274.723 176.869 272.09 173.621 272.09C170.374 272.09 167.741 274.723 167.741 277.97C167.741 281.218 170.374 283.85 173.621 283.85Z" fill="#CADCF9"/>
<path d="M293.531 177.37C292.201 175.97 290.261 175.32 288.351 175.62C285.241 176.11 212.051 188.13 196.041 225.75C191.041 237.5 192.031 250.23 198.961 263.68C195.881 265.1 192.721 266.36 189.511 267.45C186.411 268.41 184.671 271.7 185.631 274.8C186.591 277.9 189.881 279.64 192.981 278.68C197.151 277.3 201.241 275.67 205.211 273.79C214.121 286.23 223.501 292.52 233.181 292.52C234.731 292.52 236.281 292.36 237.801 292.05C253.501 288.84 267.471 269.65 280.531 233.39C286.421 216.79 291.261 199.84 295.021 182.63C295.411 180.74 294.851 178.77 293.511 177.38L293.531 177.37ZM235.441 280.53C229.381 281.77 222.801 277.69 215.801 268.37C227.621 261.76 238.451 253.51 247.971 243.86C250.241 241.54 250.201 237.81 247.871 235.54C245.551 233.27 241.821 233.31 239.551 235.64C230.661 244.63 220.531 252.29 209.451 258.4C204.081 248.09 203.241 238.86 206.851 230.37C217.431 205.48 262.451 193.14 281.561 188.94C272.871 225.51 254.521 276.63 235.431 280.53H235.441Z" fill="#CADCF9"/>
</svg>
