<?xml version="1.0" encoding="UTF-8"?>
<svg id="Calque_1" data-name="Calque 1" xmlns="http://www.w3.org/2000/svg" viewBox="0 0 1920 1080">
  <defs>
    <style>
      .cls-1 {
        fill: #cadcf9;
        stroke-width: 0px;
      }
    </style>
  </defs>
  <g id="Groupe_201" data-name="Groupe 201">
    <path id="Tracé_417" data-name="Tracé 417" class="cls-1" d="m1009.41,517.98l35.42-.97,1.78,29.01c.08,1.23.54,2.41,1.32,3.36l10.94,13.39c2.09,2.49,5.8,2.81,8.28.72,2.44-2.05,2.8-5.66.82-8.16l-9.74-11.92-2.01-32.79c-.19-3.16-2.86-5.6-6.03-5.52l-37.09,1.01-9.17-21.7,9.58-15.46,10.15,4.59c2.73,1.24,5.96.22,7.48-2.37l9.82-16.63c1.35-2.29,1-5.21-.87-7.11l-13.5-13.72.73-1.33,14.51,4.94c.8.27,1.65.37,2.5.28,31.21,26.71,48.08,66.52,45.54,107.52h.02c-.03,3.24,2.58,5.9,5.83,5.92,2.83.02,5.28-1.98,5.81-4.76h0v-.24c0-.08.03-.16.04-.24.03-.29.04-.57.02-.86,2.68-47.47-18.51-93.16-56.48-121.77-63.89-48.38-154.9-35.8-203.28,28.09-22.79,30.1-32.95,67.89-28.33,105.35,4.96,37.86,24.96,72.12,55.48,95.07,26.71,20.33,59.69,30.7,93.24,29.29,4.27-.11,5.98-.26,6.08-.27,3.21-.46,5.45-3.44,4.98-6.65-.43-2.97-3.02-5.14-6.02-5.04-.02,0-1.74.14-6.05.24h-.02c-.83.03-1.66.05-2.49.06h-.78c-29.53.38-58.34-9.11-81.84-26.99-53.69-40.48-67.95-115.06-33-172.5l-1.12,22.34c-.1,2.04.86,3.99,2.55,5.14l29.34,20.12c-.33.72-.52,1.5-.54,2.3l-.95,33.28-.52,16.35c-.08,2.47,1.4,4.73,3.7,5.65l15.04,6.01,2.75,20.99c.02.17.05.35.09.52l7.12,31.92c.39,1.77,1.58,3.25,3.22,4.03l27.88,13.24c2.93,1.39,6.44.14,7.83-2.79.74-1.57.76-3.39.04-4.97l-12.24-26.75,11.1-11.84,16.79-16.49c.94-.93,1.55-2.14,1.71-3.45l3.05-23.98c.3-2.37-.86-4.69-2.95-5.86l-10.19-5.75-11.32-17.27c-.79-1.21-2.01-2.09-3.41-2.46l-25.87-6.84-8.53-4.17-.82-17.09c0-.2-.03-.39-.06-.58l5.78-10.62,19.79-8.02,25.76-8.71c3.08-1.04,4.72-4.38,3.68-7.45-.37-1.08-1.04-2.03-1.94-2.74l-12.39-9.73,13.27-15.94c2.08-2.5,1.74-6.2-.76-8.28-.58-.48-1.24-.85-1.96-1.08l-17.43-5.61-.1-.03-24.52-7.39c20.78-8.6,43.37-11.88,65.74-9.55,17.02,1.79,33.52,6.87,48.6,14.96-.36.36-.67.77-.92,1.22l-5.22,9.48c-1.25,2.27-.87,5.1.95,6.95l13.39,13.62-4.85,8.22-10-4.59c-2.69-1.22-5.86-.25-7.42,2.26l-13.91,22.44c-1,1.62-1.16,3.62-.42,5.37l11.91,28.2c.94,2.23,3.16,3.65,5.58,3.58Zm-107.81,16.05c.34.17.7.3,1.07.4l24.25,6.41,10.87,16.58c.51.79,1.21,1.44,2.03,1.9l8,4.51-2.29,18.04-15.42,15.14-.17.17-13.88,14.81c-1.63,1.74-2.05,4.29-1.06,6.46l7.17,15.66-10.71-5.09-6.43-28.85-3.16-24.14c-.28-2.11-1.67-3.91-3.65-4.7l-14.41-5.75.39-12.25.92-32.29c.32-.18.61-.39.89-.63l.13,2.66c.1,2.15,1.37,4.07,3.3,5.01l12.17,5.95Zm-10.34-110.42l35.82,10.8,9.09,2.93-11.58,13.91c-2.08,2.49-1.74,6.2.75,8.28.04.04.09.07.14.11l8.6,6.75-15.63,5.29c-.11.04-.22.08-.32.12l-21.9,8.87c-1.26.51-2.3,1.44-2.96,2.64l-13.14,24.13-26.21-17.97,1.8-35.9c.02-.37,0-.73-.05-1.09,9.9-11.62,21.72-21.45,34.94-29.08.21.09.42.17.64.23h0Z"/>
    <circle id="Ellipse_74" data-name="Ellipse 74" class="cls-1" cx="986.03" cy="671.71" r="5.88"/>
    <path id="Tracé_418" data-name="Tracé 418" class="cls-1" d="m1105.94,571.11c-1.33-1.4-3.27-2.05-5.18-1.75-3.11.49-76.3,12.51-92.31,50.13-5,11.75-4.01,24.48,2.92,37.93-3.08,1.42-6.24,2.68-9.45,3.77-3.1.96-4.84,4.25-3.88,7.35.96,3.1,4.25,4.84,7.35,3.88,4.17-1.38,8.26-3.01,12.23-4.89,8.91,12.44,18.29,18.73,27.97,18.73,1.55,0,3.1-.16,4.62-.47,15.7-3.21,29.67-22.4,42.73-58.66,5.89-16.6,10.73-33.55,14.49-50.76.39-1.89-.17-3.86-1.51-5.25Zm-58.09,103.16c-6.06,1.24-12.64-2.84-19.64-12.16,11.82-6.61,22.65-14.86,32.17-24.51,2.27-2.32,2.23-6.05-.1-8.32-2.32-2.27-6.05-2.23-8.32.1h0c-8.89,8.99-19.02,16.65-30.1,22.76-5.37-10.31-6.21-19.54-2.6-28.03,10.58-24.89,55.6-37.23,74.71-41.43-8.69,36.57-27.04,87.69-46.13,91.59h0Z"/>
  </g>
</svg>