<?xml version="1.0" encoding="UTF-8"?>
<svg id="Calque_1" data-name="Calque 1" xmlns="http://www.w3.org/2000/svg" viewBox="0 0 1920 1080">
  <defs>
    <style>
      .cls-1, .cls-2 {
        fill: #cadcf9;
        stroke-width: 0px;
      }

      .cls-2 {
        fill-rule: evenodd;
      }
    </style>
  </defs>
  <path id="Tracé_26109" data-name="Tracé 26109" class="cls-1" d="m840.07,645.33l20.17-75.24c-37.23-67.3-12.85-152.03,54.44-189.25,67.3-37.23,152.03-12.85,189.25,54.44,37.23,67.3,12.85,152.03-54.44,189.26-41.58,23-92.02,23.21-133.79.56l-75.63,20.24Zm79.39-48.45l4.76,2.84c53.62,31.97,123,14.41,154.97-39.21,31.96-53.62,14.41-123-39.21-154.97-53.62-31.97-123-14.41-154.97,39.21-21.45,35.98-21.24,80.87.54,116.65l2.92,4.8-11.26,42.06,42.25-11.38Z"/>
  <path id="Tracé_26110" data-name="Tracé 26110" class="cls-2" d="m1032.25,524.64c-5.6-4.47-12.93-6.12-19.9-4.49-5.17,2.16-8.46,10.2-11.86,14.33-1.48,2.01-4.23,2.61-6.41,1.39-18.9-7.41-34.75-20.98-44.97-38.52-1.81-2.3-1.5-5.61.69-7.55,3.83-3.64,6.65-8.21,8.18-13.26.29-5.47-.98-10.92-3.66-15.7-2.11-6.81-6.13-12.88-11.59-17.47-5.75-2.66-12.53-1.66-17.26,2.57-8.04,6.93-12.5,17.13-12.13,27.74.03,2.96.39,5.92,1.08,8.8,1.85,6.85,4.7,13.39,8.44,19.41,2.7,4.62,5.64,9.09,8.81,13.4,10.33,14.19,23.32,26.25,38.23,35.5,7.49,4.68,15.49,8.48,23.84,11.33,8.69,3.93,18.28,5.44,27.76,4.38,10.97-1.7,20.39-8.71,25.17-18.72,1.34-2.99,1.75-6.32,1.16-9.55-1.33-6.49-10.2-10.4-15.59-13.59Z"/>
</svg>