<?xml version="1.0" encoding="UTF-8"?>
<svg id="Linebld03" xmlns="http://www.w3.org/2000/svg" viewBox="0 0 2874.45 1748.43">
  <defs>
    <style>
      .cls-1 {
        fill: none;
        stroke: #000;
        stroke-miterlimit: 10;
        stroke-width: 3px;
      }
    </style>
  </defs>
  <path class="cls-1" d="m35.24,963.11c18.29-1.56,46.78-4.22,81.8-8.56,26.25-3.25,30.09-4.21,60.91-8.15,46.63-5.97,69.94-8.95,100.57-10.68,29.95-1.69,52.42-2.85,82.69.5,20.12,2.23,41.41,4.74,65.74,15.13,9.87,4.21,27.28,11.81,42.41,26.57,9.41,9.18,17.1,20.31,21.95,27.34,6.31,9.14,6.31,10.51,10.74,16.56,3.04,4.16,12.94,17.06,29,28.02,0,0,24.12,16.16,58.03,21.87,3.09.52,8.22,1.27,13.79,1.92,13.86,1.62,24.44,1.93,30.95,2.11,37.79,1.03,43.18.55,59.24,1.52,5.6.34,17.03.71,31.78,2.97,0,0,4.14.64,7.83,1.32,19.68,3.66,39.28,12.39,50.73,17.55,19.54,8.82,29.31,13.22,48.26,22.49,3.18,1.56,17.01,8.3,35.63,17.84,15.95,8.17,27.83,14.52,34.68,18.18,52.52,28.06,62,33.9,93.83,50.19,14.83,7.59,22.47,11.49,33.7,16.73,17.22,8.05,39.14,18.28,66.82,27.54,15.74,5.26,42.64,14.04,79.9,19.36,5.32.76,22.2,3.07,44.76,4.05,44.13,1.92,91.07-4.5,106-6.67,41.33-6,71.46-14.08,101.13-22.03,11.05-2.96,30.32-8.92,68.41-20.67,48.43-14.93,63.76-19.93,95.51-29.72,16.23-5.01,45.31-13.89,81.57-24.66,21.62-6.42,54.17-16.09,97.14-28.25,13.37-3.78,47.8-13.52,85.47-23.62,46.65-12.5,104.21-27.92,175.76-43.61,6.43-1.41,90.74-20.05,165.59-31.42,11.25-1.71,34.7-5.14,65.18-7.86,17.98-1.61,34.17-3.02,55.42-3.19,31.88-.26,51.1,1.66,61.65,3.1,13.35,1.82,23.88,4.06,34.91,8.06,7.03,2.55,15.22,5.58,23.73,11.94,10.03,7.5,14.62,15.24,15.77,17.25.34.59,5.85,10.44,5.82,17.77,0,.8-.09,4.58.49,9.74.07.64.2,1.79.3,2.33,1.15,6.4,12.75,11.52,14.26,12.17,20.16,8.68,48.3,14.2,54.04,15.3,15.03,2.89,22.54,4.34,29.63,5.59,25.35,4.47,44.51,7.43,54.19,8.92,0,0,24.13,3.71,73.16,11.59,38.28,6.16,70.05,11.49,109.85,20.68,22.18,5.12,40.33,9.97,52.78,13.45"/>
  <path class="cls-1" d="m23.5,950.1c18.29-1.56,46.78-4.22,81.8-8.56,26.25-3.25,30.09-4.21,60.91-8.15,46.63-5.97,69.94-8.95,100.57-10.68,29.95-1.69,52.42-2.85,82.69.5,20.12,2.23,41.41,4.74,65.74,15.13,9.87,4.21,27.28,11.81,42.41,26.57,9.41,9.18,17.1,20.31,21.95,27.34,6.31,9.14,6.31,10.51,10.74,16.56,3.04,4.16,12.94,17.06,29,28.02,0,0,24.12,16.16,58.03,21.87,3.09.52,8.22,1.27,13.79,1.92,13.86,1.62,24.44,1.93,30.95,2.11,37.79,1.03,43.18.55,59.24,1.52,5.6.34,17.03.71,31.78,2.97,0,0,4.14.64,7.83,1.32,19.68,3.66,39.28,12.39,50.73,17.55,19.54,8.82,29.31,13.22,48.26,22.49,3.18,1.56,17.01,8.3,35.63,17.84,15.95,8.17,27.83,14.52,34.68,18.18,52.52,28.06,62,33.9,93.83,50.19,14.83,7.59,22.47,11.49,33.7,16.73,17.22,8.05,39.14,18.28,66.82,27.54,15.74,5.26,42.64,14.04,79.9,19.36,5.32.76,22.2,3.07,44.76,4.05,44.13,1.92,91.07-4.5,106-6.67,41.33-6,71.46-14.08,101.13-22.03,11.05-2.96,30.32-8.92,68.41-20.67,48.43-14.93,63.76-19.93,95.51-29.72,16.23-5.01,45.31-13.89,81.57-24.66,21.62-6.42,54.17-16.09,97.14-28.25,13.37-3.78,47.8-13.52,85.47-23.62,46.65-12.5,104.21-27.92,175.76-43.61,6.43-1.41,90.74-20.05,165.59-31.42,11.25-1.71,34.7-5.14,65.18-7.86,17.98-1.61,34.17-3.02,55.42-3.19,31.88-.26,51.1,1.66,61.65,3.1,13.35,1.82,23.88,4.06,34.91,8.06,7.03,2.55,15.22,5.58,23.73,11.94,10.03,7.5,14.62,15.24,15.77,17.25.34.59,5.85,10.44,5.82,17.77,0,.8-.09,4.58.49,9.74.07.64.2,1.79.3,2.33,1.15,6.4,12.75,11.52,14.26,12.17,20.16,8.68,48.3,14.2,54.04,15.3,15.03,2.89,22.54,4.34,29.63,5.59,25.35,4.47,44.51,7.43,54.19,8.92,0,0,24.13,3.71,73.16,11.59,38.28,6.16,70.05,11.49,109.85,20.68,22.18,5.12,40.33,9.97,52.78,13.45"/>
  <path class="cls-1" d="m11.75,937.09c18.29-1.56,46.78-4.22,81.8-8.56,26.25-3.25,30.09-4.21,60.91-8.15,46.63-5.97,69.94-8.95,100.57-10.68,29.95-1.69,52.42-2.85,82.69.5,20.12,2.23,41.41,4.74,65.74,15.13,9.87,4.21,27.28,11.81,42.41,26.57,9.41,9.18,17.1,20.31,21.95,27.34,6.31,9.14,6.31,10.51,10.74,16.56,3.04,4.16,12.94,17.06,29,28.02,0,0,24.12,16.16,58.03,21.87,3.09.52,8.22,1.27,13.79,1.92,13.86,1.62,24.44,1.93,30.95,2.11,37.79,1.03,43.18.55,59.24,1.52,5.6.34,17.03.71,31.78,2.97,0,0,4.14.64,7.83,1.32,19.68,3.66,39.28,12.39,50.73,17.55,19.54,8.82,29.31,13.22,48.26,22.49,3.18,1.56,17.01,8.3,35.63,17.84,15.95,8.17,27.83,14.52,34.68,18.18,52.52,28.06,62,33.9,93.83,50.19,14.83,7.59,22.47,11.49,33.7,16.73,17.22,8.05,39.14,18.28,66.82,27.54,15.74,5.26,42.64,14.04,79.9,19.36,5.32.76,22.2,3.07,44.76,4.05,44.13,1.92,91.07-4.5,106-6.67,41.33-6,71.46-14.08,101.13-22.03,11.05-2.96,30.32-8.92,68.41-20.67,48.43-14.93,63.76-19.93,95.51-29.72,16.23-5.01,45.31-13.89,81.57-24.66,21.62-6.42,54.17-16.09,97.14-28.25,13.37-3.78,47.8-13.52,85.47-23.62,46.65-12.5,104.21-27.92,175.76-43.61,6.43-1.41,90.74-20.05,165.59-31.42,11.25-1.71,34.7-5.14,65.18-7.86,17.98-1.61,34.17-3.02,55.42-3.19,31.88-.26,51.1,1.66,61.65,3.1,13.35,1.82,23.88,4.06,34.91,8.06,7.03,2.55,15.22,5.58,23.73,11.94,10.03,7.5,14.62,15.24,15.77,17.25.34.59,5.85,10.44,5.82,17.77,0,.8-.09,4.58.49,9.74.07.64.2,1.79.3,2.33,1.15,6.4,12.75,11.52,14.26,12.17,20.16,8.68,48.3,14.2,54.04,15.3,15.03,2.89,22.54,4.34,29.63,5.59,25.35,4.47,44.51,7.43,54.19,8.92,0,0,24.13,3.71,73.16,11.59,38.28,6.16,70.05,11.49,109.85,20.68,22.18,5.12,40.33,9.97,52.78,13.45"/>
  <path class="cls-1" d="m0,924.08c18.29-1.56,46.78-4.22,81.8-8.56,26.25-3.25,30.09-4.21,60.91-8.15,46.63-5.97,69.94-8.95,100.57-10.68,29.95-1.69,52.42-2.85,82.69.5,20.12,2.23,41.41,4.74,65.74,15.13,9.87,4.21,27.28,11.81,42.41,26.57,9.41,9.18,17.1,20.31,21.95,27.34,6.31,9.14,6.31,10.51,10.74,16.56,3.04,4.16,12.94,17.06,29,28.02,0,0,24.12,16.16,58.03,21.87,3.09.52,8.22,1.27,13.79,1.92,13.86,1.62,24.44,1.93,30.95,2.11,37.79,1.03,43.18.55,59.24,1.52,5.6.34,17.03.71,31.78,2.97,0,0,4.14.64,7.83,1.32,19.68,3.66,39.28,12.39,50.73,17.55,19.54,8.82,29.31,13.22,48.26,22.49,3.18,1.56,17.01,8.3,35.63,17.84,15.95,8.17,27.83,14.52,34.68,18.18,52.52,28.06,62,33.9,93.83,50.19,14.83,7.59,22.47,11.49,33.7,16.73,17.22,8.05,39.14,18.28,66.82,27.54,15.74,5.26,42.64,14.04,79.9,19.36,5.32.76,22.2,3.07,44.76,4.05,44.13,1.92,91.07-4.5,106-6.67,41.33-6,71.46-14.08,101.13-22.03,11.05-2.96,30.32-8.92,68.41-20.67,48.43-14.93,63.76-19.93,95.51-29.72,16.23-5.01,45.31-13.89,81.57-24.66,21.62-6.42,54.17-16.09,97.14-28.25,13.37-3.78,47.8-13.52,85.47-23.62,46.65-12.5,104.21-27.92,175.76-43.61,6.43-1.41,90.74-20.05,165.59-31.42,11.25-1.71,34.7-5.14,65.18-7.86,17.98-1.61,34.17-3.02,55.42-3.19,31.88-.26,51.1,1.66,61.65,3.1,13.35,1.82,23.88,4.06,34.91,8.06,7.03,2.55,15.22,5.58,23.73,11.94,10.03,7.5,14.62,15.24,15.77,17.25.34.59,5.85,10.44,5.82,17.77,0,.8-.09,4.58.49,9.74.07.64.2,1.79.3,2.33,1.15,6.4,12.75,11.52,14.26,12.17,20.16,8.68,48.3,14.2,54.04,15.3,15.03,2.89,22.54,4.34,29.63,5.59,25.35,4.47,44.51,7.43,54.19,8.92,0,0,24.13,3.71,73.16,11.59,38.28,6.16,70.05,11.49,109.85,20.68,22.18,5.12,40.33,9.97,52.78,13.45"/>
  <path class="cls-1" d="m-11.74,911.07c18.29-1.56,46.78-4.22,81.8-8.56,26.25-3.25,30.09-4.21,60.91-8.15,46.63-5.97,69.94-8.95,100.57-10.68,29.95-1.69,52.42-2.85,82.69.5,20.12,2.23,41.41,4.74,65.74,15.13,9.87,4.21,27.28,11.81,42.41,26.57,9.41,9.18,17.1,20.31,21.95,27.34,6.31,9.14,6.31,10.51,10.74,16.56,3.04,4.16,12.94,17.06,29,28.02,0,0,24.12,16.16,58.03,21.87,3.09.52,8.22,1.27,13.79,1.92,13.86,1.62,24.44,1.93,30.95,2.11,37.79,1.03,43.18.55,59.24,1.52,5.6.34,17.03.71,31.78,2.97,0,0,4.14.64,7.83,1.32,19.68,3.66,39.28,12.39,50.73,17.55,19.54,8.82,29.31,13.22,48.26,22.49,3.18,1.56,17.01,8.3,35.63,17.84,15.95,8.17,27.83,14.52,34.68,18.18,52.52,28.06,62,33.9,93.83,50.19,14.83,7.59,22.47,11.49,33.7,16.73,17.22,8.05,39.14,18.28,66.82,27.54,15.74,5.26,42.64,14.04,79.9,19.36,5.32.76,22.2,3.07,44.76,4.05,44.13,1.92,91.07-4.5,106-6.67,41.33-6,71.46-14.08,101.13-22.03,11.05-2.96,30.32-8.92,68.41-20.67,48.43-14.93,63.76-19.93,95.51-29.72,16.23-5.01,45.31-13.89,81.57-24.66,21.62-6.42,54.17-16.09,97.14-28.25,13.37-3.78,47.8-13.52,85.47-23.62,46.65-12.5,104.21-27.92,175.76-43.61,6.43-1.41,90.74-20.05,165.59-31.42,11.25-1.71,34.7-5.14,65.18-7.86,17.98-1.61,34.17-3.02,55.42-3.19,31.88-.26,51.1,1.66,61.65,3.1,13.35,1.82,23.88,4.06,34.91,8.06,7.03,2.55,15.22,5.58,23.73,11.94,10.03,7.5,14.62,15.24,15.77,17.25.34.59,5.85,10.44,5.82,17.77,0,.8-.09,4.58.49,9.74.07.64.2,1.79.3,2.33,1.15,6.4,12.75,11.52,14.26,12.17,20.16,8.68,48.3,14.2,54.04,15.3,15.03,2.89,22.54,4.34,29.63,5.59,25.35,4.47,44.51,7.43,54.19,8.92,0,0,24.13,3.71,73.16,11.59,38.28,6.16,70.05,11.49,109.85,20.68,22.18,5.12,40.33,9.97,52.78,13.45"/>
  <path class="cls-1" d="m-23.49,898.06c18.29-1.56,46.78-4.22,81.8-8.56,26.25-3.25,30.09-4.21,60.91-8.15,46.63-5.97,69.94-8.95,100.57-10.68,29.95-1.69,52.42-2.85,82.69.5,20.12,2.23,41.41,4.74,65.74,15.13,9.87,4.21,27.28,11.81,42.41,26.57,9.41,9.18,17.1,20.31,21.95,27.34,6.31,9.14,6.31,10.51,10.74,16.56,3.04,4.16,12.94,17.06,29,28.02,0,0,24.12,16.16,58.03,21.87,3.09.52,8.22,1.27,13.79,1.92,13.86,1.62,24.44,1.93,30.95,2.11,37.79,1.03,43.18.55,59.24,1.52,5.6.34,17.03.71,31.78,2.97,0,0,4.14.64,7.83,1.32,19.68,3.66,39.28,12.39,50.73,17.55,19.54,8.82,29.31,13.22,48.26,22.49,3.18,1.56,17.01,8.3,35.63,17.84,15.95,8.17,27.83,14.52,34.68,18.18,52.52,28.06,62,33.9,93.83,50.19,14.83,7.59,22.47,11.49,33.7,16.73,17.22,8.05,39.14,18.28,66.82,27.54,15.74,5.26,42.64,14.04,79.9,19.36,5.32.76,22.2,3.07,44.76,4.05,44.13,1.92,91.07-4.5,106-6.67,41.33-6,71.46-14.08,101.13-22.03,11.05-2.96,30.32-8.92,68.41-20.67,48.43-14.93,63.76-19.93,95.51-29.72,16.23-5.01,45.31-13.89,81.57-24.66,21.62-6.42,54.17-16.09,97.14-28.25,13.37-3.78,47.8-13.52,85.47-23.62,46.65-12.5,104.21-27.92,175.76-43.61,6.43-1.41,90.74-20.05,165.59-31.42,11.25-1.71,34.7-5.14,65.18-7.86,17.98-1.61,34.17-3.02,55.42-3.19,31.88-.26,51.1,1.66,61.65,3.1,13.35,1.82,23.88,4.06,34.91,8.06,7.03,2.55,15.22,5.58,23.73,11.94,10.03,7.5,14.62,15.24,15.77,17.25.34.59,5.85,10.44,5.82,17.77,0,.8-.09,4.58.49,9.74.07.64.2,1.79.3,2.33,1.15,6.4,12.75,11.52,14.26,12.17,20.16,8.68,48.3,14.2,54.04,15.3,15.03,2.89,22.54,4.34,29.63,5.59,25.35,4.47,44.51,7.43,54.19,8.92,0,0,24.13,3.71,73.16,11.59,38.28,6.16,70.05,11.49,109.85,20.68,22.18,5.12,40.33,9.97,52.78,13.45"/>
  <path class="cls-1" d="m-35.24,885.04c18.29-1.56,46.78-4.22,81.8-8.56,26.25-3.25,30.09-4.21,60.91-8.15,46.63-5.97,69.94-8.95,100.57-10.68,29.95-1.69,52.42-2.85,82.69.5,20.12,2.23,41.41,4.74,65.74,15.13,9.87,4.21,27.28,11.81,42.41,26.57,9.41,9.18,17.1,20.31,21.95,27.34,6.31,9.14,6.31,10.51,10.74,16.56,3.04,4.16,12.94,17.06,29,28.02,0,0,24.12,16.16,58.03,21.87,3.09.52,8.22,1.27,13.79,1.92,13.86,1.62,24.44,1.93,30.95,2.11,37.79,1.03,43.18.55,59.24,1.52,5.6.34,17.03.71,31.78,2.97,0,0,4.14.64,7.83,1.32,19.68,3.66,39.28,12.39,50.73,17.55,19.54,8.82,29.31,13.22,48.26,22.49,3.18,1.56,17.01,8.3,35.63,17.84,15.95,8.17,27.83,14.52,34.68,18.18,52.52,28.06,62,33.9,93.83,50.19,14.83,7.59,22.47,11.49,33.7,16.73,17.22,8.05,39.14,18.28,66.82,27.54,15.74,5.26,42.64,14.04,79.9,19.36,5.32.76,22.2,3.07,44.76,4.05,44.13,1.92,91.07-4.5,106-6.67,41.33-6,71.46-14.08,101.13-22.03,11.05-2.96,30.32-8.92,68.41-20.67,48.43-14.93,63.76-19.93,95.51-29.72,16.23-5.01,45.31-13.89,81.57-24.66,21.62-6.42,54.17-16.09,97.14-28.25,13.37-3.78,47.8-13.52,85.47-23.62,46.65-12.5,104.21-27.92,175.76-43.61,6.43-1.41,90.74-20.05,165.59-31.42,11.25-1.71,34.7-5.14,65.18-7.86,17.98-1.61,34.17-3.02,55.42-3.19,31.88-.26,51.1,1.66,61.65,3.1,13.35,1.82,23.88,4.06,34.91,8.06,7.03,2.55,15.22,5.58,23.73,11.94,10.03,7.5,14.62,15.24,15.77,17.25.34.59,5.85,10.44,5.82,17.77,0,.8-.09,4.58.49,9.74.07.64.2,1.79.3,2.33,1.15,6.4,12.75,11.52,14.26,12.17,20.16,8.68,48.3,14.2,54.04,15.3,15.03,2.89,22.54,4.34,29.63,5.59,25.35,4.47,44.51,7.43,54.19,8.92,0,0,24.13,3.71,73.16,11.59,38.28,6.16,70.05,11.49,109.85,20.68,22.18,5.12,40.33,9.97,52.78,13.45"/>
  <path class="cls-1" d="m-46.98,872.03c18.29-1.56,46.78-4.22,81.8-8.56,26.25-3.25,30.09-4.21,60.91-8.15,46.63-5.97,69.94-8.95,100.57-10.68,29.95-1.69,52.42-2.85,82.69.5,20.12,2.23,41.41,4.74,65.74,15.13,9.87,4.21,27.28,11.81,42.41,26.57,9.41,9.18,17.1,20.31,21.95,27.34,6.31,9.14,6.31,10.51,10.74,16.56,3.04,4.16,12.94,17.06,29,28.02,0,0,24.12,16.16,58.03,21.87,3.09.52,8.22,1.27,13.79,1.92,13.86,1.62,24.44,1.93,30.95,2.11,37.79,1.03,43.18.55,59.24,1.52,5.6.34,17.03.71,31.78,2.97,0,0,4.14.64,7.83,1.32,19.68,3.66,39.28,12.39,50.73,17.55,19.54,8.82,29.31,13.22,48.26,22.49,3.18,1.56,17.01,8.3,35.63,17.84,15.95,8.17,27.83,14.52,34.68,18.18,52.52,28.06,62,33.9,93.83,50.19,14.83,7.59,22.47,11.49,33.7,16.73,17.22,8.05,39.14,18.28,66.82,27.54,15.74,5.26,42.64,14.04,79.9,19.36,5.32.76,22.2,3.07,44.76,4.05,44.13,1.92,91.07-4.5,106-6.67,41.33-6,71.46-14.08,101.13-22.03,11.05-2.96,30.32-8.92,68.41-20.67,48.43-14.93,63.76-19.93,95.51-29.72,16.23-5.01,45.31-13.89,81.57-24.66,21.62-6.42,54.17-16.09,97.14-28.25,13.37-3.78,47.8-13.52,85.47-23.62,46.65-12.5,104.21-27.92,175.76-43.61,6.43-1.41,90.74-20.05,165.59-31.42,11.25-1.71,34.7-5.14,65.18-7.86,17.98-1.61,34.17-3.02,55.42-3.19,31.88-.26,51.1,1.66,61.65,3.1,13.35,1.82,23.88,4.06,34.91,8.06,7.03,2.55,15.22,5.58,23.73,11.94,10.03,7.5,14.62,15.24,15.77,17.25.34.59,5.85,10.44,5.82,17.77,0,.8-.09,4.58.49,9.74.07.64.2,1.79.3,2.33,1.15,6.4,12.75,11.52,14.26,12.17,20.16,8.68,48.3,14.2,54.04,15.3,15.03,2.89,22.54,4.34,29.63,5.59,25.35,4.47,44.51,7.43,54.19,8.92,0,0,24.13,3.71,73.16,11.59,38.28,6.16,70.05,11.49,109.85,20.68,22.18,5.12,40.33,9.97,52.78,13.45"/>
  <path class="cls-1" d="m-58.73,859.02c18.29-1.56,46.78-4.22,81.8-8.56,26.25-3.25,30.09-4.21,60.91-8.15,46.63-5.97,69.94-8.95,100.57-10.68,29.95-1.69,52.42-2.85,82.69.5,20.12,2.23,41.41,4.74,65.74,15.13,9.87,4.21,27.28,11.81,42.41,26.57,9.41,9.18,17.1,20.31,21.95,27.34,6.31,9.14,6.31,10.51,10.74,16.56,3.04,4.16,12.94,17.06,29,28.02,0,0,24.12,16.16,58.03,21.87,3.09.52,8.22,1.27,13.79,1.92,13.86,1.62,24.44,1.93,30.95,2.11,37.79,1.03,43.18.55,59.24,1.52,5.6.34,17.03.71,31.78,2.97,0,0,4.14.64,7.83,1.32,19.68,3.66,39.28,12.39,50.73,17.55,19.54,8.82,29.31,13.22,48.26,22.49,3.18,1.56,17.01,8.3,35.63,17.84,15.95,8.17,27.83,14.52,34.68,18.18,52.52,28.06,62,33.9,93.83,50.19,14.83,7.59,22.47,11.49,33.7,16.73,17.22,8.05,39.14,18.28,66.82,27.54,15.74,5.26,42.64,14.04,79.9,19.36,5.32.76,22.2,3.07,44.76,4.05,44.13,1.92,91.07-4.5,106-6.67,41.33-6,71.46-14.08,101.13-22.03,11.05-2.96,30.32-8.92,68.41-20.67,48.43-14.93,63.76-19.93,95.51-29.72,16.23-5.01,45.31-13.89,81.57-24.66,21.62-6.42,54.17-16.09,97.14-28.25,13.37-3.78,47.8-13.52,85.47-23.62,46.65-12.5,104.21-27.92,175.76-43.61,6.43-1.41,90.74-20.05,165.59-31.42,11.25-1.71,34.7-5.14,65.18-7.86,17.98-1.61,34.17-3.02,55.42-3.19,31.88-.26,51.1,1.66,61.65,3.1,13.35,1.82,23.88,4.06,34.91,8.06,7.03,2.55,15.22,5.58,23.73,11.94,10.03,7.5,14.62,15.24,15.77,17.25.34.59,5.85,10.44,5.82,17.77,0,.8-.09,4.58.49,9.74.07.64.2,1.79.3,2.33,1.15,6.4,12.75,11.52,14.26,12.17,20.16,8.68,48.3,14.2,54.04,15.3,15.03,2.89,22.54,4.34,29.63,5.59,25.35,4.47,44.51,7.43,54.19,8.92,0,0,24.13,3.71,73.16,11.59,38.28,6.16,70.05,11.49,109.85,20.68,22.18,5.12,40.33,9.97,52.78,13.45"/>
  <path class="cls-1" d="m-70.48,846.01c18.29-1.56,46.78-4.22,81.8-8.56,26.25-3.25,30.09-4.21,60.91-8.15,46.63-5.97,69.94-8.95,100.57-10.68,29.95-1.69,52.42-2.85,82.69.5,20.12,2.23,41.41,4.74,65.74,15.13,9.87,4.21,27.28,11.81,42.41,26.57,9.41,9.18,17.1,20.31,21.95,27.34,6.31,9.14,6.31,10.51,10.74,16.56,3.04,4.16,12.94,17.06,29,28.02,0,0,24.12,16.16,58.03,21.87,3.09.52,8.22,1.27,13.79,1.92,13.86,1.62,24.44,1.93,30.95,2.11,37.79,1.03,43.18.55,59.24,1.52,5.6.34,17.03.71,31.78,2.97,0,0,4.14.64,7.83,1.32,19.68,3.66,39.28,12.39,50.73,17.55,19.54,8.82,29.31,13.22,48.26,22.49,3.18,1.56,17.01,8.3,35.63,17.84,15.95,8.17,27.83,14.52,34.68,18.18,52.52,28.06,62,33.9,93.83,50.19,14.83,7.59,22.47,11.49,33.7,16.73,17.22,8.05,39.14,18.28,66.82,27.54,15.74,5.26,42.64,14.04,79.9,19.36,5.32.76,22.2,3.07,44.76,4.05,44.13,1.92,91.07-4.5,106-6.67,41.33-6,71.46-14.08,101.13-22.03,11.05-2.96,30.32-8.92,68.41-20.67,48.43-14.93,63.76-19.93,95.51-29.72,16.23-5.01,45.31-13.89,81.57-24.66,21.62-6.42,54.17-16.09,97.14-28.25,13.37-3.78,47.8-13.52,85.47-23.62,46.65-12.5,104.21-27.92,175.76-43.61,6.43-1.41,90.74-20.05,165.59-31.42,11.25-1.71,34.7-5.14,65.18-7.86,17.98-1.61,34.17-3.02,55.42-3.19,31.88-.26,51.1,1.66,61.65,3.1,13.35,1.82,23.88,4.06,34.91,8.06,7.03,2.55,15.22,5.58,23.73,11.94,10.03,7.5,14.62,15.24,15.77,17.25.34.59,5.85,10.44,5.82,17.77,0,.8-.09,4.58.49,9.74.07.64.2,1.79.3,2.33,1.15,6.4,12.75,11.52,14.26,12.17,20.16,8.68,48.3,14.2,54.04,15.3,15.03,2.89,22.54,4.34,29.63,5.59,25.35,4.47,44.51,7.43,54.19,8.92,0,0,24.13,3.71,73.16,11.59,38.28,6.16,70.05,11.49,109.85,20.68,22.18,5.12,40.33,9.97,52.78,13.45"/>
  <path class="cls-1" d="m-82.23,833c18.29-1.56,46.78-4.22,81.8-8.56,26.25-3.25,30.09-4.21,60.91-8.15,46.63-5.97,69.94-8.95,100.57-10.68,29.95-1.69,52.42-2.85,82.69.5,20.12,2.23,41.41,4.74,65.74,15.13,9.87,4.21,27.28,11.81,42.41,26.57,9.41,9.18,17.1,20.31,21.95,27.34,6.31,9.14,6.31,10.51,10.74,16.56,3.04,4.16,12.94,17.06,29,28.02,0,0,24.12,16.16,58.03,21.87,3.09.52,8.22,1.27,13.79,1.92,13.86,1.62,24.44,1.93,30.95,2.11,37.79,1.03,43.18.55,59.24,1.52,5.6.34,17.03.71,31.78,2.97,0,0,4.14.64,7.83,1.32,19.68,3.66,39.28,12.39,50.73,17.55,19.54,8.82,29.31,13.22,48.26,22.49,3.18,1.56,17.01,8.3,35.63,17.84,15.95,8.17,27.83,14.52,34.68,18.18,52.52,28.06,62,33.9,93.83,50.19,14.83,7.59,22.47,11.49,33.7,16.73,17.22,8.05,39.14,18.28,66.82,27.54,15.74,5.26,42.64,14.04,79.9,19.36,5.32.76,22.2,3.07,44.76,4.05,44.13,1.92,91.07-4.5,106-6.67,41.33-6,71.46-14.08,101.13-22.03,11.05-2.96,30.32-8.92,68.41-20.67,48.43-14.93,63.76-19.93,95.51-29.72,16.23-5.01,45.31-13.89,81.57-24.66,21.62-6.42,54.17-16.09,97.14-28.25,13.37-3.78,47.8-13.52,85.47-23.62,46.65-12.5,104.21-27.92,175.76-43.61,6.43-1.41,90.74-20.05,165.59-31.42,11.25-1.71,34.7-5.14,65.18-7.86,17.98-1.61,34.17-3.02,55.42-3.19,31.88-.26,51.1,1.66,61.65,3.1,13.35,1.82,23.88,4.06,34.91,8.06,7.03,2.55,15.22,5.58,23.73,11.94,10.03,7.5,14.62,15.24,15.77,17.25.34.59,5.85,10.44,5.82,17.77,0,.8-.09,4.58.49,9.74.07.64.2,1.79.3,2.33,1.15,6.4,12.75,11.52,14.26,12.17,20.16,8.68,48.3,14.2,54.04,15.3,15.03,2.89,22.54,4.34,29.63,5.59,25.35,4.47,44.51,7.43,54.19,8.92,0,0,24.13,3.71,73.16,11.59,38.28,6.16,70.05,11.49,109.85,20.68,22.18,5.12,40.33,9.97,52.78,13.45"/>
  <path class="cls-1" d="m-93.97,819.99c18.29-1.56,46.78-4.22,81.8-8.56,26.25-3.25,30.09-4.21,60.91-8.15,46.63-5.97,69.94-8.95,100.57-10.68,29.95-1.69,52.42-2.85,82.69.5,20.12,2.23,41.41,4.74,65.74,15.13,9.87,4.21,27.28,11.81,42.41,26.57,9.41,9.18,17.1,20.31,21.95,27.34,6.31,9.14,6.31,10.51,10.74,16.56,3.04,4.16,12.94,17.06,29,28.02,0,0,24.12,16.16,58.03,21.87,3.09.52,8.22,1.27,13.79,1.92,13.86,1.62,24.44,1.93,30.95,2.11,37.79,1.03,43.18.55,59.24,1.52,5.6.34,17.03.71,31.78,2.97,0,0,4.14.64,7.83,1.32,19.68,3.66,39.28,12.39,50.73,17.55,19.54,8.82,29.31,13.22,48.26,22.49,3.18,1.56,17.01,8.3,35.63,17.84,15.95,8.17,27.83,14.52,34.68,18.18,52.52,28.06,62,33.9,93.83,50.19,14.83,7.59,22.47,11.49,33.7,16.73,17.22,8.05,39.14,18.28,66.82,27.54,15.74,5.26,42.64,14.04,79.9,19.36,5.32.76,22.2,3.07,44.76,4.05,44.13,1.92,91.07-4.5,106-6.67,41.33-6,71.46-14.08,101.13-22.03,11.05-2.96,30.32-8.92,68.41-20.67,48.43-14.93,63.76-19.93,95.51-29.72,16.23-5.01,45.31-13.89,81.57-24.66,21.62-6.42,54.17-16.09,97.14-28.25,13.37-3.78,47.8-13.52,85.47-23.62,46.65-12.5,104.21-27.92,175.76-43.61,6.43-1.41,90.74-20.05,165.59-31.42,11.25-1.71,34.7-5.14,65.18-7.86,17.98-1.61,34.17-3.02,55.42-3.19,31.88-.26,51.1,1.66,61.65,3.1,13.35,1.82,23.88,4.06,34.91,8.06,7.03,2.55,15.22,5.58,23.73,11.94,10.03,7.5,14.62,15.24,15.77,17.25.34.59,5.85,10.44,5.82,17.77,0,.8-.09,4.58.49,9.74.07.64.2,1.79.3,2.33,1.15,6.4,12.75,11.52,14.26,12.17,20.16,8.68,48.3,14.2,54.04,15.3,15.03,2.89,22.54,4.34,29.63,5.59,25.35,4.47,44.51,7.43,54.19,8.92,0,0,24.13,3.71,73.16,11.59,38.28,6.16,70.05,11.49,109.85,20.68,22.18,5.12,40.33,9.97,52.78,13.45"/>
  <path class="cls-1" d="m-105.72,806.98c18.29-1.56,46.78-4.22,81.8-8.56,26.25-3.25,30.09-4.21,60.91-8.15,46.63-5.97,69.94-8.95,100.57-10.68,29.95-1.69,52.42-2.85,82.69.5,20.12,2.23,41.41,4.74,65.74,15.13,9.87,4.21,27.28,11.81,42.41,26.57,9.41,9.18,17.1,20.31,21.95,27.34,6.31,9.14,6.31,10.51,10.74,16.56,3.04,4.16,12.94,17.06,29,28.02,0,0,24.12,16.16,58.03,21.87,3.09.52,8.22,1.27,13.79,1.92,13.86,1.62,24.44,1.93,30.95,2.11,37.79,1.03,43.18.55,59.24,1.52,5.6.34,17.03.71,31.78,2.97,0,0,4.14.64,7.83,1.32,19.68,3.66,39.28,12.39,50.73,17.55,19.54,8.82,29.31,13.22,48.26,22.49,3.18,1.56,17.01,8.3,35.63,17.84,15.95,8.17,27.83,14.52,34.68,18.18,52.52,28.06,62,33.9,93.83,50.19,14.83,7.59,22.47,11.49,33.7,16.73,17.22,8.05,39.14,18.28,66.82,27.54,15.74,5.26,42.64,14.04,79.9,19.36,5.32.76,22.2,3.07,44.76,4.05,44.13,1.92,91.07-4.5,106-6.67,41.33-6,71.46-14.08,101.13-22.03,11.05-2.96,30.32-8.92,68.41-20.67,48.43-14.93,63.76-19.93,95.51-29.72,16.23-5.01,45.31-13.89,81.57-24.66,21.62-6.42,54.17-16.09,97.14-28.25,13.37-3.78,47.8-13.52,85.47-23.62,46.65-12.5,104.21-27.92,175.76-43.61,6.43-1.41,90.74-20.05,165.59-31.42,11.25-1.71,34.7-5.14,65.18-7.86,17.98-1.61,34.17-3.02,55.42-3.19,31.88-.26,51.1,1.66,61.65,3.1,13.35,1.82,23.88,4.06,34.91,8.06,7.03,2.55,15.22,5.58,23.73,11.94,10.03,7.5,14.62,15.24,15.77,17.25.34.59,5.85,10.44,5.82,17.77,0,.8-.09,4.58.49,9.74.07.64.2,1.79.3,2.33,1.15,6.4,12.75,11.52,14.26,12.17,20.16,8.68,48.3,14.2,54.04,15.3,15.03,2.89,22.54,4.34,29.63,5.59,25.35,4.47,44.51,7.43,54.19,8.92,0,0,24.13,3.71,73.16,11.59,38.28,6.16,70.05,11.49,109.85,20.68,22.18,5.12,40.33,9.97,52.78,13.45"/>
  <path class="cls-1" d="m-117.47,793.97c18.29-1.56,46.78-4.22,81.8-8.56,26.25-3.25,30.09-4.21,60.91-8.15,46.63-5.97,69.94-8.95,100.57-10.68,29.95-1.69,52.42-2.85,82.69.5,20.12,2.23,41.41,4.74,65.74,15.13,9.87,4.21,27.28,11.81,42.41,26.57,9.41,9.18,17.1,20.31,21.95,27.34,6.31,9.14,6.31,10.51,10.74,16.56,3.04,4.16,12.94,17.06,29,28.02,0,0,24.12,16.16,58.03,21.87,3.09.52,8.22,1.27,13.79,1.92,13.86,1.62,24.44,1.93,30.95,2.11,37.79,1.03,43.18.55,59.24,1.52,5.6.34,17.03.71,31.78,2.97,0,0,4.14.64,7.83,1.32,19.68,3.66,39.28,12.39,50.73,17.55,19.54,8.82,29.31,13.22,48.26,22.49,3.18,1.56,17.01,8.3,35.63,17.84,15.95,8.17,27.83,14.52,34.68,18.18,52.52,28.06,62,33.9,93.83,50.19,14.83,7.59,22.47,11.49,33.7,16.73,17.22,8.05,39.14,18.28,66.82,27.54,15.74,5.26,42.64,14.04,79.9,19.36,5.32.76,22.2,3.07,44.76,4.05,44.13,1.92,91.07-4.5,106-6.67,41.33-6,71.46-14.08,101.13-22.03,11.05-2.96,30.32-8.92,68.41-20.67,48.43-14.93,63.76-19.93,95.51-29.72,16.23-5.01,45.31-13.89,81.57-24.66,21.62-6.42,54.17-16.09,97.14-28.25,13.37-3.78,47.8-13.52,85.47-23.62,46.65-12.5,104.21-27.92,175.76-43.61,6.43-1.41,90.74-20.05,165.59-31.42,11.25-1.71,34.7-5.14,65.18-7.86,17.98-1.61,34.17-3.02,55.42-3.19,31.88-.26,51.1,1.66,61.65,3.1,13.35,1.82,23.88,4.06,34.91,8.06,7.03,2.55,15.22,5.58,23.73,11.94,10.03,7.5,14.62,15.24,15.77,17.25.34.59,5.85,10.44,5.82,17.77,0,.8-.09,4.58.49,9.74.07.64.2,1.79.3,2.33,1.15,6.4,12.75,11.52,14.26,12.17,20.16,8.68,48.3,14.2,54.04,15.3,15.03,2.89,22.54,4.34,29.63,5.59,25.35,4.47,44.51,7.43,54.19,8.92,0,0,24.13,3.71,73.16,11.59,38.28,6.16,70.05,11.49,109.85,20.68,22.18,5.12,40.33,9.97,52.78,13.45"/>
  <path class="cls-1" d="m-129.21,780.96c18.29-1.56,46.78-4.22,81.8-8.56,26.25-3.25,30.09-4.21,60.91-8.15,46.63-5.97,69.94-8.95,100.57-10.68,29.95-1.69,52.42-2.85,82.69.5,20.12,2.23,41.41,4.74,65.74,15.13,9.87,4.21,27.28,11.81,42.41,26.57,9.41,9.18,17.1,20.31,21.95,27.34,6.31,9.14,6.31,10.51,10.74,16.56,3.04,4.16,12.94,17.06,29,28.02,0,0,24.12,16.16,58.03,21.87,3.09.52,8.22,1.27,13.79,1.92,13.86,1.62,24.44,1.93,30.95,2.11,37.79,1.03,43.18.55,59.24,1.52,5.6.34,17.03.71,31.78,2.97,0,0,4.14.64,7.83,1.32,19.68,3.66,39.28,12.39,50.73,17.55,19.54,8.82,29.31,13.22,48.26,22.49,3.18,1.56,17.01,8.3,35.63,17.84,15.95,8.17,27.83,14.52,34.68,18.18,52.52,28.06,62,33.9,93.83,50.19,14.83,7.59,22.47,11.49,33.7,16.73,17.22,8.05,39.14,18.28,66.82,27.54,15.74,5.26,42.64,14.04,79.9,19.36,5.32.76,22.2,3.07,44.76,4.05,44.13,1.92,91.07-4.5,106-6.67,41.33-6,71.46-14.08,101.13-22.03,11.05-2.96,30.32-8.92,68.41-20.67,48.43-14.93,63.76-19.93,95.51-29.72,16.23-5.01,45.31-13.89,81.57-24.66,21.62-6.42,54.17-16.09,97.14-28.25,13.37-3.78,47.8-13.52,85.47-23.62,46.65-12.5,104.21-27.92,175.76-43.61,6.43-1.41,90.74-20.05,165.59-31.42,11.25-1.71,34.7-5.14,65.18-7.86,17.98-1.61,34.17-3.02,55.42-3.19,31.88-.26,51.1,1.66,61.65,3.1,13.35,1.82,23.88,4.06,34.91,8.06,7.03,2.55,15.22,5.58,23.73,11.94,10.03,7.5,14.62,15.24,15.77,17.25.34.59,5.85,10.44,5.82,17.77,0,.8-.09,4.58.49,9.74.07.64.2,1.79.3,2.33,1.15,6.4,12.75,11.52,14.26,12.17,20.16,8.68,48.3,14.2,54.04,15.3,15.03,2.89,22.54,4.34,29.63,5.59,25.35,4.47,44.51,7.43,54.19,8.92,0,0,24.13,3.71,73.16,11.59,38.28,6.16,70.05,11.49,109.85,20.68,22.18,5.12,40.33,9.97,52.78,13.45"/>
  <path class="cls-1" d="m-140.96,767.95c18.29-1.56,46.78-4.22,81.8-8.56,26.25-3.25,30.09-4.21,60.91-8.15,46.63-5.97,69.94-8.95,100.57-10.68,29.95-1.69,52.42-2.85,82.69.5,20.12,2.23,41.41,4.74,65.74,15.13,9.87,4.21,27.28,11.81,42.41,26.57,9.41,9.18,17.1,20.31,21.95,27.34,6.31,9.14,6.31,10.51,10.74,16.56,3.04,4.16,12.94,17.06,29,28.02,0,0,24.12,16.16,58.03,21.87,3.09.52,8.22,1.27,13.79,1.92,13.86,1.62,24.44,1.93,30.95,2.11,37.79,1.03,43.18.55,59.24,1.52,5.6.34,17.03.71,31.78,2.97,0,0,4.14.64,7.83,1.32,19.68,3.66,39.28,12.39,50.73,17.55,19.54,8.82,29.31,13.22,48.26,22.49,3.18,1.56,17.01,8.3,35.63,17.84,15.95,8.17,27.83,14.52,34.68,18.18,52.52,28.06,62,33.9,93.83,50.19,14.83,7.59,22.47,11.49,33.7,16.73,17.22,8.05,39.14,18.28,66.82,27.54,15.74,5.26,42.64,14.04,79.9,19.36,5.32.76,22.2,3.07,44.76,4.05,44.13,1.92,91.07-4.5,106-6.67,41.33-6,71.46-14.08,101.13-22.03,11.05-2.96,30.32-8.92,68.41-20.67,48.43-14.93,63.76-19.93,95.51-29.72,16.23-5.01,45.31-13.89,81.57-24.66,21.62-6.42,54.17-16.09,97.14-28.25,13.37-3.78,47.8-13.52,85.47-23.62,46.65-12.5,104.21-27.92,175.76-43.61,6.43-1.41,90.74-20.05,165.59-31.42,11.25-1.71,34.7-5.14,65.18-7.86,17.98-1.61,34.17-3.02,55.42-3.19,31.88-.26,51.1,1.66,61.65,3.1,13.35,1.82,23.88,4.06,34.91,8.06,7.03,2.55,15.22,5.58,23.73,11.94,10.03,7.5,14.62,15.24,15.77,17.25.34.59,5.85,10.44,5.82,17.77,0,.8-.09,4.58.49,9.74.07.64.2,1.79.3,2.33,1.15,6.4,12.75,11.52,14.26,12.17,20.16,8.68,48.3,14.2,54.04,15.3,15.03,2.89,22.54,4.34,29.63,5.59,25.35,4.47,44.51,7.43,54.19,8.92,0,0,24.13,3.71,73.16,11.59,38.28,6.16,70.05,11.49,109.85,20.68,22.18,5.12,40.33,9.97,52.78,13.45"/>
  <path class="cls-1" d="m-152.71,754.94c18.29-1.56,46.78-4.22,81.8-8.56,26.25-3.25,30.09-4.21,60.91-8.15,46.63-5.97,69.94-8.95,100.57-10.68,29.95-1.69,52.42-2.85,82.69.5,20.12,2.23,41.41,4.74,65.74,15.13,9.87,4.21,27.28,11.81,42.41,26.57,9.41,9.18,17.1,20.31,21.95,27.34,6.31,9.14,6.31,10.51,10.74,16.56,3.04,4.16,12.94,17.06,29,28.02,0,0,24.12,16.16,58.03,21.87,3.09.52,8.22,1.27,13.79,1.92,13.86,1.62,24.44,1.93,30.95,2.11,37.79,1.03,43.18.55,59.24,1.52,5.6.34,17.03.71,31.78,2.97,0,0,4.14.64,7.83,1.32,19.68,3.66,39.28,12.39,50.73,17.55,19.54,8.82,29.31,13.22,48.26,22.49,3.18,1.56,17.01,8.3,35.63,17.84,15.95,8.17,27.83,14.52,34.68,18.18,52.52,28.06,62,33.9,93.83,50.19,14.83,7.59,22.47,11.49,33.7,16.73,17.22,8.05,39.14,18.28,66.82,27.54,15.74,5.26,42.64,14.04,79.9,19.36,5.32.76,22.2,3.07,44.76,4.05,44.13,1.92,91.07-4.5,106-6.67,41.33-6,71.46-14.08,101.13-22.03,11.05-2.96,30.32-8.92,68.41-20.67,48.43-14.93,63.76-19.93,95.51-29.72,16.23-5.01,45.31-13.89,81.57-24.66,21.62-6.42,54.17-16.09,97.14-28.25,13.37-3.78,47.8-13.52,85.47-23.62,46.65-12.5,104.21-27.92,175.76-43.61,6.43-1.41,90.74-20.05,165.59-31.42,11.25-1.71,34.7-5.14,65.18-7.86,17.98-1.61,34.17-3.02,55.42-3.19,31.88-.26,51.1,1.66,61.65,3.1,13.35,1.82,23.88,4.06,34.91,8.06,7.03,2.55,15.22,5.58,23.73,11.94,10.03,7.5,14.62,15.24,15.77,17.25.34.59,5.85,10.44,5.82,17.77,0,.8-.09,4.58.49,9.74.07.64.2,1.79.3,2.33,1.15,6.4,12.75,11.52,14.26,12.17,20.16,8.68,48.3,14.2,54.04,15.3,15.03,2.89,22.54,4.34,29.63,5.59,25.35,4.47,44.51,7.43,54.19,8.92,0,0,24.13,3.71,73.16,11.59,38.28,6.16,70.05,11.49,109.85,20.68,22.18,5.12,40.33,9.97,52.78,13.45"/>
  <path class="cls-1" d="m-164.45,741.93c18.29-1.56,46.78-4.22,81.8-8.56,26.25-3.25,30.09-4.21,60.91-8.15,46.63-5.97,69.94-8.95,100.57-10.68,29.95-1.69,52.42-2.85,82.69.5,20.12,2.23,41.41,4.74,65.74,15.13,9.87,4.21,27.28,11.81,42.41,26.57,9.41,9.18,17.1,20.31,21.95,27.34,6.31,9.14,6.31,10.51,10.74,16.56,3.04,4.16,12.94,17.06,29,28.02,0,0,24.12,16.16,58.03,21.87,3.09.52,8.22,1.27,13.79,1.92,13.86,1.62,24.44,1.93,30.95,2.11,37.79,1.03,43.18.55,59.24,1.52,5.6.34,17.03.71,31.78,2.97,0,0,4.14.64,7.83,1.32,19.68,3.66,39.28,12.39,50.73,17.55,19.54,8.82,29.31,13.22,48.26,22.49,3.18,1.56,17.01,8.3,35.63,17.84,15.95,8.17,27.83,14.52,34.68,18.18,52.52,28.06,62,33.9,93.83,50.19,14.83,7.59,22.47,11.49,33.7,16.73,17.22,8.05,39.14,18.28,66.82,27.54,15.74,5.26,42.64,14.04,79.9,19.36,5.32.76,22.2,3.07,44.76,4.05,44.13,1.92,91.07-4.5,106-6.67,41.33-6,71.46-14.08,101.13-22.03,11.05-2.96,30.32-8.92,68.41-20.67,48.43-14.93,63.76-19.93,95.51-29.72,16.23-5.01,45.31-13.89,81.57-24.66,21.62-6.42,54.17-16.09,97.14-28.25,13.37-3.78,47.8-13.52,85.47-23.62,46.65-12.5,104.21-27.92,175.76-43.61,6.43-1.41,90.74-20.05,165.59-31.42,11.25-1.71,34.7-5.14,65.18-7.86,17.98-1.61,34.17-3.02,55.42-3.19,31.88-.26,51.1,1.66,61.65,3.1,13.35,1.82,23.88,4.06,34.91,8.06,7.03,2.55,15.22,5.58,23.73,11.94,10.03,7.5,14.62,15.24,15.77,17.25.34.59,5.85,10.44,5.82,17.77,0,.8-.09,4.58.49,9.74.07.64.2,1.79.3,2.33,1.15,6.4,12.75,11.52,14.26,12.17,20.16,8.68,48.3,14.2,54.04,15.3,15.03,2.89,22.54,4.34,29.63,5.59,25.35,4.47,44.51,7.43,54.19,8.92,0,0,24.13,3.71,73.16,11.59,38.28,6.16,70.05,11.49,109.85,20.68,22.18,5.12,40.33,9.97,52.78,13.45"/>
  <path class="cls-1" d="m-176.2,728.92c18.29-1.56,46.78-4.22,81.8-8.56,26.25-3.25,30.09-4.21,60.91-8.15,46.63-5.97,69.94-8.95,100.57-10.68,29.95-1.69,52.42-2.85,82.69.5,20.12,2.23,41.41,4.74,65.74,15.13,9.87,4.21,27.28,11.81,42.41,26.57,9.41,9.18,17.1,20.31,21.95,27.34,6.31,9.14,6.31,10.51,10.74,16.56,3.04,4.16,12.94,17.06,29,28.02,0,0,24.12,16.16,58.03,21.87,3.09.52,8.22,1.27,13.79,1.92,13.86,1.62,24.44,1.93,30.95,2.11,37.79,1.03,43.18.55,59.24,1.52,5.6.34,17.03.71,31.78,2.97,0,0,4.14.64,7.83,1.32,19.68,3.66,39.28,12.39,50.73,17.55,19.54,8.82,29.31,13.22,48.26,22.49,3.18,1.56,17.01,8.3,35.63,17.84,15.95,8.17,27.83,14.52,34.68,18.18,52.52,28.06,62,33.9,93.83,50.19,14.83,7.59,22.47,11.49,33.7,16.73,17.22,8.05,39.14,18.28,66.82,27.54,15.74,5.26,42.64,14.04,79.9,19.36,5.32.76,22.2,3.07,44.76,4.05,44.13,1.92,91.07-4.5,106-6.67,41.33-6,71.46-14.08,101.13-22.03,11.05-2.96,30.32-8.92,68.41-20.67,48.43-14.93,63.76-19.93,95.51-29.72,16.23-5.01,45.31-13.89,81.57-24.66,21.62-6.42,54.17-16.09,97.14-28.25,13.37-3.78,47.8-13.52,85.47-23.62,46.65-12.5,104.21-27.92,175.76-43.61,6.43-1.41,90.74-20.05,165.59-31.42,11.25-1.71,34.7-5.14,65.18-7.86,17.98-1.61,34.17-3.02,55.42-3.19,31.88-.26,51.1,1.66,61.65,3.1,13.35,1.82,23.88,4.06,34.91,8.06,7.03,2.55,15.22,5.58,23.73,11.94,10.03,7.5,14.62,15.24,15.77,17.25.34.59,5.85,10.44,5.82,17.77,0,.8-.09,4.58.49,9.74.07.64.2,1.79.3,2.33,1.15,6.4,12.75,11.52,14.26,12.17,20.16,8.68,48.3,14.2,54.04,15.3,15.03,2.89,22.54,4.34,29.63,5.59,25.35,4.47,44.51,7.43,54.19,8.92,0,0,24.13,3.71,73.16,11.59,38.28,6.16,70.05,11.49,109.85,20.68,22.18,5.12,40.33,9.97,52.78,13.45"/>
  <path class="cls-1" d="m-187.95,715.9c18.29-1.56,46.78-4.22,81.8-8.56,26.25-3.25,30.09-4.21,60.91-8.15,46.63-5.97,69.94-8.95,100.57-10.68,29.95-1.69,52.42-2.85,82.69.5,20.12,2.23,41.41,4.74,65.74,15.13,9.87,4.21,27.28,11.81,42.41,26.57,9.41,9.18,17.1,20.31,21.95,27.34,6.31,9.14,6.31,10.51,10.74,16.56,3.04,4.16,12.94,17.06,29,28.02,0,0,24.12,16.16,58.03,21.87,3.09.52,8.22,1.27,13.79,1.92,13.86,1.62,24.44,1.93,30.95,2.11,37.79,1.03,43.18.55,59.24,1.52,5.6.34,17.03.71,31.78,2.97,0,0,4.14.64,7.83,1.32,19.68,3.66,39.28,12.39,50.73,17.55,19.54,8.82,29.31,13.22,48.26,22.49,3.18,1.56,17.01,8.3,35.63,17.84,15.95,8.17,27.83,14.52,34.68,18.18,52.52,28.06,62,33.9,93.83,50.19,14.83,7.59,22.47,11.49,33.7,16.73,17.22,8.05,39.14,18.28,66.82,27.54,15.74,5.26,42.64,14.04,79.9,19.36,5.32.76,22.2,3.07,44.76,4.05,44.13,1.92,91.07-4.5,106-6.67,41.33-6,71.46-14.08,101.13-22.03,11.05-2.96,30.32-8.92,68.41-20.67,48.43-14.93,63.76-19.93,95.51-29.72,16.23-5.01,45.31-13.89,81.57-24.66,21.62-6.42,54.17-16.09,97.14-28.25,13.37-3.78,47.8-13.52,85.47-23.62,46.65-12.5,104.21-27.92,175.76-43.61,6.43-1.41,90.74-20.05,165.59-31.42,11.25-1.71,34.7-5.14,65.18-7.86,17.98-1.61,34.17-3.02,55.42-3.19,31.88-.26,51.1,1.66,61.65,3.1,13.35,1.82,23.88,4.06,34.91,8.06,7.03,2.55,15.22,5.58,23.73,11.94,10.03,7.5,14.62,15.24,15.77,17.25.34.59,5.85,10.44,5.82,17.77,0,.8-.09,4.58.49,9.74.07.64.2,1.79.3,2.33,1.15,6.4,12.75,11.52,14.26,12.17,20.16,8.68,48.3,14.2,54.04,15.3,15.03,2.89,22.54,4.34,29.63,5.59,25.35,4.47,44.51,7.43,54.19,8.92,0,0,24.13,3.71,73.16,11.59,38.28,6.16,70.05,11.49,109.85,20.68,22.18,5.12,40.33,9.97,52.78,13.45"/>
  <path class="cls-1" d="m-199.7,702.89c18.29-1.56,46.78-4.22,81.8-8.56,26.25-3.25,30.09-4.21,60.91-8.15,46.63-5.97,69.94-8.95,100.57-10.68,29.95-1.69,52.42-2.85,82.69.5,20.12,2.23,41.41,4.74,65.74,15.13,9.87,4.21,27.28,11.81,42.41,26.57,9.41,9.18,17.1,20.31,21.95,27.34,6.31,9.14,6.31,10.51,10.74,16.56,3.04,4.16,12.94,17.06,29,28.02,0,0,24.12,16.16,58.03,21.87,3.09.52,8.22,1.27,13.79,1.92,13.86,1.62,24.44,1.93,30.95,2.11,37.79,1.03,43.18.55,59.24,1.52,5.6.34,17.03.71,31.78,2.97,0,0,4.14.64,7.83,1.32,19.68,3.66,39.28,12.39,50.73,17.55,19.54,8.82,29.31,13.22,48.26,22.49,3.18,1.56,17.01,8.3,35.63,17.84,15.95,8.17,27.83,14.52,34.68,18.18,52.52,28.06,62,33.9,93.83,50.19,14.83,7.59,22.47,11.49,33.7,16.73,17.22,8.05,39.14,18.28,66.82,27.54,15.74,5.26,42.64,14.04,79.9,19.36,5.32.76,22.2,3.07,44.76,4.05,44.13,1.92,91.07-4.5,106-6.67,41.33-6,71.46-14.08,101.13-22.03,11.05-2.96,30.32-8.92,68.41-20.67,48.43-14.93,63.76-19.93,95.51-29.72,16.23-5.01,45.31-13.89,81.57-24.66,21.62-6.42,54.17-16.09,97.14-28.25,13.37-3.78,47.8-13.52,85.47-23.62,46.65-12.5,104.21-27.92,175.76-43.61,6.43-1.41,90.74-20.05,165.59-31.42,11.25-1.71,34.7-5.14,65.18-7.86,17.98-1.61,34.17-3.02,55.42-3.19,31.88-.26,51.1,1.66,61.65,3.1,13.35,1.82,23.88,4.06,34.91,8.06,7.03,2.55,15.22,5.58,23.73,11.94,10.03,7.5,14.62,15.24,15.77,17.25.34.59,5.85,10.44,5.82,17.77,0,.8-.09,4.58.49,9.74.07.64.2,1.79.3,2.33,1.15,6.4,12.75,11.52,14.26,12.17,20.16,8.68,48.3,14.2,54.04,15.3,15.03,2.89,22.54,4.34,29.63,5.59,25.35,4.47,44.51,7.43,54.19,8.92,0,0,24.13,3.71,73.16,11.59,38.28,6.16,70.05,11.49,109.85,20.68,22.18,5.12,40.33,9.97,52.78,13.45"/>
  <path class="cls-1" d="m-211.44,689.88c18.29-1.56,46.78-4.22,81.8-8.56,26.25-3.25,30.09-4.21,60.91-8.15,46.63-5.97,69.94-8.95,100.57-10.68,29.95-1.69,52.42-2.85,82.69.5,20.12,2.23,41.41,4.74,65.74,15.13,9.87,4.21,27.28,11.81,42.41,26.57,9.41,9.18,17.1,20.31,21.95,27.34,6.31,9.14,6.31,10.51,10.74,16.56,3.04,4.16,12.94,17.06,29,28.02,0,0,24.12,16.16,58.03,21.87,3.09.52,8.22,1.27,13.79,1.92,13.86,1.62,24.44,1.93,30.95,2.11,37.79,1.03,43.18.55,59.24,1.52,5.6.34,17.03.71,31.78,2.97,0,0,4.14.64,7.83,1.32,19.68,3.66,39.28,12.39,50.73,17.55,19.54,8.82,29.31,13.22,48.26,22.49,3.18,1.56,17.01,8.3,35.63,17.84,15.95,8.17,27.83,14.52,34.68,18.18,52.52,28.06,62,33.9,93.83,50.19,14.83,7.59,22.47,11.49,33.7,16.73,17.22,8.05,39.14,18.28,66.82,27.54,15.74,5.26,42.64,14.04,79.9,19.36,5.32.76,22.2,3.07,44.76,4.05,44.13,1.92,91.07-4.5,106-6.67,41.33-6,71.46-14.08,101.13-22.03,11.05-2.96,30.32-8.92,68.41-20.67,48.43-14.93,63.76-19.93,95.51-29.72,16.23-5.01,45.31-13.89,81.57-24.66,21.62-6.42,54.17-16.09,97.14-28.25,13.37-3.78,47.8-13.52,85.47-23.62,46.65-12.5,104.21-27.92,175.76-43.61,6.43-1.41,90.74-20.05,165.59-31.42,11.25-1.71,34.7-5.14,65.18-7.86,17.98-1.61,34.17-3.02,55.42-3.19,31.88-.26,51.1,1.66,61.65,3.1,13.35,1.82,23.88,4.06,34.91,8.06,7.03,2.55,15.22,5.58,23.73,11.94,10.03,7.5,14.62,15.24,15.77,17.25.34.59,5.85,10.44,5.82,17.77,0,.8-.09,4.58.49,9.74.07.64.2,1.79.3,2.33,1.15,6.4,12.75,11.52,14.26,12.17,20.16,8.68,48.3,14.2,54.04,15.3,15.03,2.89,22.54,4.34,29.63,5.59,25.35,4.47,44.51,7.43,54.19,8.92,0,0,24.13,3.71,73.16,11.59,38.28,6.16,70.05,11.49,109.85,20.68,22.18,5.12,40.33,9.97,52.78,13.45"/>
</svg>